<svg width="645" height="509" viewBox="0 0 645 509" fill="none" xmlns="http://www.w3.org/2000/svg">
<rect width="645" height="509" rx="12" fill="url(#paint0_linear_773_2959)"/>
<path d="M47.1506 455.273V464H45.8295V456.594H45.7784L43.6903 457.957V456.696L45.8679 455.273H47.1506ZM52.8065 455.273H54.4045L57.1829 462.057H57.2852L60.0636 455.273H61.6616V464H60.4087V457.685H60.3278L57.7539 463.987H56.7141L54.1403 457.68H54.0593V464H52.8065V455.273ZM71.157 459.636C71.157 460.568 70.9865 461.369 70.6456 462.04C70.3047 462.707 69.8374 463.222 69.2436 463.582C68.6527 463.94 67.9808 464.119 67.228 464.119C66.4723 464.119 65.7976 463.94 65.2038 463.582C64.6129 463.222 64.147 462.706 63.8061 462.036C63.4652 461.365 63.2947 460.565 63.2947 459.636C63.2947 458.705 63.4652 457.905 63.8061 457.237C64.147 456.567 64.6129 456.053 65.2038 455.695C65.7976 455.334 66.4723 455.153 67.228 455.153C67.9808 455.153 68.6527 455.334 69.2436 455.695C69.8374 456.053 70.3047 456.567 70.6456 457.237C70.9865 457.905 71.157 458.705 71.157 459.636ZM69.853 459.636C69.853 458.926 69.7379 458.328 69.5078 457.842C69.2805 457.354 68.968 456.984 68.5703 456.734C68.1754 456.482 67.728 456.355 67.228 456.355C66.7251 456.355 66.2763 456.482 65.8814 456.734C65.4865 456.984 65.174 457.354 64.9439 457.842C64.7166 458.328 64.603 458.926 64.603 459.636C64.603 460.347 64.7166 460.946 64.9439 461.435C65.174 461.92 65.4865 462.29 65.8814 462.543C66.2763 462.793 66.7251 462.918 67.228 462.918C67.728 462.918 68.1754 462.793 68.5703 462.543C68.968 462.29 69.2805 461.92 69.5078 461.435C69.7379 460.946 69.853 460.347 69.853 459.636ZM79.8427 455.273V464H78.6325L74.1964 457.599H74.1154V464H72.7987V455.273H74.0174L78.4577 461.682H78.5387V455.273H79.8427ZM81.3331 456.406V455.273H88.0874V456.406H85.3643V464H84.0518V456.406H81.3331ZM89.5799 464V455.273H90.8967V459.065H95.2475V455.273H96.5685V464H95.2475V460.195H90.8967V464H89.5799Z" fill="#27222F" fill-opacity="0.5"/>
<path d="M211.151 455.273V464H209.83V456.594H209.778L207.69 457.957V456.696L209.868 455.273H211.151ZM213.511 464V463.045L216.464 459.986C216.78 459.653 217.04 459.362 217.244 459.112C217.452 458.859 217.607 458.619 217.709 458.392C217.811 458.165 217.862 457.923 217.862 457.668C217.862 457.378 217.794 457.128 217.658 456.918C217.521 456.705 217.335 456.541 217.099 456.428C216.864 456.311 216.598 456.253 216.303 456.253C215.99 456.253 215.717 456.317 215.484 456.445C215.251 456.572 215.072 456.753 214.947 456.986C214.822 457.219 214.76 457.491 214.76 457.804H213.503C213.503 457.273 213.625 456.808 213.869 456.411C214.114 456.013 214.449 455.705 214.875 455.486C215.301 455.264 215.786 455.153 216.328 455.153C216.876 455.153 217.359 455.263 217.777 455.482C218.197 455.697 218.526 455.993 218.761 456.368C218.997 456.74 219.115 457.161 219.115 457.629C219.115 457.953 219.054 458.27 218.932 458.58C218.813 458.889 218.604 459.234 218.305 459.615C218.007 459.993 217.592 460.452 217.061 460.991L215.327 462.807V462.871H219.256V464H213.511ZM224.166 455.273H225.764L228.542 462.057H228.645L231.423 455.273H233.021V464H231.768V457.685H231.687L229.113 463.987H228.074L225.5 457.68H225.419V464H224.166V455.273ZM242.516 459.636C242.516 460.568 242.346 461.369 242.005 462.04C241.664 462.707 241.197 463.222 240.603 463.582C240.012 463.94 239.34 464.119 238.587 464.119C237.832 464.119 237.157 463.94 236.563 463.582C235.972 463.222 235.506 462.706 235.165 462.036C234.825 461.365 234.654 460.565 234.654 459.636C234.654 458.705 234.825 457.905 235.165 457.237C235.506 456.567 235.972 456.053 236.563 455.695C237.157 455.334 237.832 455.153 238.587 455.153C239.34 455.153 240.012 455.334 240.603 455.695C241.197 456.053 241.664 456.567 242.005 457.237C242.346 457.905 242.516 458.705 242.516 459.636ZM241.212 459.636C241.212 458.926 241.097 458.328 240.867 457.842C240.64 457.354 240.327 456.984 239.93 456.734C239.535 456.482 239.087 456.355 238.587 456.355C238.085 456.355 237.636 456.482 237.241 456.734C236.846 456.984 236.533 457.354 236.303 457.842C236.076 458.328 235.962 458.926 235.962 459.636C235.962 460.347 236.076 460.946 236.303 461.435C236.533 461.92 236.846 462.29 237.241 462.543C237.636 462.793 238.085 462.918 238.587 462.918C239.087 462.918 239.535 462.793 239.93 462.543C240.327 462.29 240.64 461.92 240.867 461.435C241.097 460.946 241.212 460.347 241.212 459.636ZM251.202 455.273V464H249.992L245.556 457.599H245.475V464H244.158V455.273H245.377L249.817 461.682H249.898V455.273H251.202ZM252.692 456.406V455.273H259.447V456.406H256.724V464H255.411V456.406H252.692ZM260.939 464V455.273H262.256V459.065H266.607V455.273H267.928V464H266.607V460.195H262.256V464H260.939Z" fill="#27222F" fill-opacity="0.5"/>
<path d="M374.839 464V463.045L377.793 459.986C378.108 459.653 378.368 459.362 378.572 459.112C378.78 458.859 378.935 458.619 379.037 458.392C379.139 458.165 379.19 457.923 379.19 457.668C379.19 457.378 379.122 457.128 378.986 456.918C378.849 456.705 378.663 456.541 378.428 456.428C378.192 456.311 377.926 456.253 377.631 456.253C377.318 456.253 377.045 456.317 376.812 456.445C376.58 456.572 376.401 456.753 376.276 456.986C376.151 457.219 376.088 457.491 376.088 457.804H374.831C374.831 457.273 374.953 456.808 375.197 456.411C375.442 456.013 375.777 455.705 376.203 455.486C376.629 455.264 377.114 455.153 377.656 455.153C378.205 455.153 378.688 455.263 379.105 455.482C379.526 455.697 379.854 455.993 380.089 456.368C380.325 456.74 380.443 457.161 380.443 457.629C380.443 457.953 380.382 458.27 380.26 458.58C380.141 458.889 379.932 459.234 379.634 459.615C379.335 459.993 378.92 460.452 378.389 460.991L376.655 462.807V462.871H380.584V464H374.839ZM381.828 462.295V461.23L385.599 455.273H386.439V456.841H385.906L383.209 461.111V461.179H388.378V462.295H381.828ZM385.966 464V461.972L385.974 461.486V455.273H387.223V464H385.966ZM393.158 455.273H394.756L397.534 462.057H397.637L400.415 455.273H402.013V464H400.76V457.685H400.679L398.105 463.987H397.066L394.492 457.68H394.411V464H393.158V455.273ZM411.509 459.636C411.509 460.568 411.338 461.369 410.997 462.04C410.656 462.707 410.189 463.222 409.595 463.582C409.004 463.94 408.332 464.119 407.58 464.119C406.824 464.119 406.149 463.94 405.555 463.582C404.964 463.222 404.499 462.706 404.158 462.036C403.817 461.365 403.646 460.565 403.646 459.636C403.646 458.705 403.817 457.905 404.158 457.237C404.499 456.567 404.964 456.053 405.555 455.695C406.149 455.334 406.824 455.153 407.58 455.153C408.332 455.153 409.004 455.334 409.595 455.695C410.189 456.053 410.656 456.567 410.997 457.237C411.338 457.905 411.509 458.705 411.509 459.636ZM410.205 459.636C410.205 458.926 410.089 458.328 409.859 457.842C409.632 457.354 409.32 456.984 408.922 456.734C408.527 456.482 408.08 456.355 407.58 456.355C407.077 456.355 406.628 456.482 406.233 456.734C405.838 456.984 405.526 457.354 405.295 457.842C405.068 458.328 404.955 458.926 404.955 459.636C404.955 460.347 405.068 460.946 405.295 461.435C405.526 461.92 405.838 462.29 406.233 462.543C406.628 462.793 407.077 462.918 407.58 462.918C408.08 462.918 408.527 462.793 408.922 462.543C409.32 462.29 409.632 461.92 409.859 461.435C410.089 460.946 410.205 460.347 410.205 459.636ZM420.194 455.273V464H418.984L414.548 457.599H414.467V464H413.15V455.273H414.369L418.809 461.682H418.89V455.273H420.194ZM421.685 456.406V455.273H428.439V456.406H425.716V464H424.403V456.406H421.685ZM429.931 464V455.273H431.248V459.065H435.599V455.273H436.92V464H435.599V460.195H431.248V464H429.931Z" fill="#27222F" fill-opacity="0.5"/>
<path d="M546.878 464.119C546.293 464.119 545.77 464.018 545.31 463.817C544.852 463.615 544.49 463.335 544.223 462.977C543.959 462.616 543.817 462.199 543.797 461.724H545.135C545.152 461.983 545.239 462.207 545.395 462.398C545.554 462.585 545.761 462.73 546.017 462.832C546.273 462.935 546.557 462.986 546.869 462.986C547.213 462.986 547.517 462.926 547.781 462.807C548.048 462.687 548.257 462.521 548.408 462.308C548.558 462.092 548.634 461.844 548.634 461.562C548.634 461.27 548.558 461.013 548.408 460.791C548.26 460.567 548.043 460.391 547.756 460.263C547.472 460.135 547.128 460.071 546.724 460.071H545.987V458.997H546.724C547.048 458.997 547.332 458.939 547.577 458.822C547.824 458.706 548.017 458.544 548.156 458.337C548.295 458.126 548.365 457.881 548.365 457.599C548.365 457.33 548.304 457.095 548.182 456.896C548.063 456.695 547.892 456.537 547.67 456.423C547.452 456.31 547.193 456.253 546.895 456.253C546.611 456.253 546.345 456.305 546.098 456.411C545.854 456.513 545.655 456.661 545.501 456.854C545.348 457.044 545.266 457.273 545.254 457.54H543.98C543.994 457.068 544.134 456.653 544.398 456.295C544.665 455.937 545.017 455.658 545.455 455.456C545.892 455.254 546.378 455.153 546.912 455.153C547.472 455.153 547.955 455.263 548.361 455.482C548.77 455.697 549.085 455.986 549.307 456.347C549.531 456.707 549.642 457.102 549.639 457.531C549.642 458.02 549.506 458.435 549.23 458.776C548.957 459.116 548.594 459.345 548.139 459.462V459.53C548.719 459.618 549.168 459.848 549.486 460.22C549.807 460.592 549.966 461.054 549.963 461.605C549.966 462.085 549.832 462.516 549.562 462.896C549.295 463.277 548.93 463.577 548.467 463.795C548.004 464.011 547.474 464.119 546.878 464.119ZM554.621 464.119C554.232 464.114 553.848 464.043 553.47 463.906C553.095 463.77 552.754 463.543 552.447 463.224C552.141 462.906 551.895 462.479 551.71 461.942C551.528 461.405 551.438 460.734 551.438 459.93C551.438 459.169 551.513 458.493 551.663 457.902C551.817 457.311 552.037 456.812 552.324 456.406C552.611 455.997 552.957 455.686 553.364 455.473C553.77 455.26 554.226 455.153 554.732 455.153C555.251 455.153 555.713 455.256 556.116 455.46C556.52 455.665 556.847 455.947 557.097 456.308C557.349 456.669 557.51 457.08 557.578 457.54H556.278C556.19 457.176 556.016 456.879 555.754 456.649C555.493 456.419 555.152 456.304 554.732 456.304C554.092 456.304 553.594 456.582 553.236 457.139C552.881 457.696 552.702 458.47 552.699 459.462H552.763C552.913 459.214 553.098 459.004 553.317 458.831C553.538 458.655 553.786 458.52 554.058 458.426C554.334 458.33 554.624 458.281 554.928 458.281C555.433 458.281 555.891 458.405 556.3 458.652C556.712 458.896 557.04 459.234 557.284 459.666C557.528 460.098 557.651 460.592 557.651 461.149C557.651 461.706 557.524 462.21 557.271 462.662C557.021 463.114 556.669 463.472 556.214 463.736C555.76 463.997 555.229 464.125 554.621 464.119ZM554.616 463.011C554.952 463.011 555.251 462.929 555.516 462.764C555.78 462.599 555.989 462.378 556.142 462.099C556.295 461.821 556.372 461.51 556.372 461.166C556.372 460.831 556.297 460.526 556.146 460.25C555.999 459.974 555.794 459.756 555.533 459.594C555.274 459.432 554.979 459.351 554.646 459.351C554.393 459.351 554.159 459.399 553.943 459.496C553.73 459.592 553.543 459.726 553.381 459.896C553.219 460.067 553.091 460.263 552.997 460.484C552.906 460.703 552.861 460.935 552.861 461.179C552.861 461.506 552.936 461.808 553.087 462.087C553.24 462.365 553.449 462.589 553.713 462.76C553.98 462.928 554.281 463.011 554.616 463.011ZM562.498 455.273H564.096L566.874 462.057H566.977L569.755 455.273H571.353V464H570.1V457.685H570.019L567.445 463.987H566.406L563.832 457.68H563.751V464H562.498V455.273ZM580.848 459.636C580.848 460.568 580.678 461.369 580.337 462.04C579.996 462.707 579.529 463.222 578.935 463.582C578.344 463.94 577.672 464.119 576.919 464.119C576.164 464.119 575.489 463.94 574.895 463.582C574.304 463.222 573.838 462.706 573.498 462.036C573.157 461.365 572.986 460.565 572.986 459.636C572.986 458.705 573.157 457.905 573.498 457.237C573.838 456.567 574.304 456.053 574.895 455.695C575.489 455.334 576.164 455.153 576.919 455.153C577.672 455.153 578.344 455.334 578.935 455.695C579.529 456.053 579.996 456.567 580.337 457.237C580.678 457.905 580.848 458.705 580.848 459.636ZM579.544 459.636C579.544 458.926 579.429 458.328 579.199 457.842C578.972 457.354 578.659 456.984 578.262 456.734C577.867 456.482 577.419 456.355 576.919 456.355C576.417 456.355 575.968 456.482 575.573 456.734C575.178 456.984 574.865 457.354 574.635 457.842C574.408 458.328 574.294 458.926 574.294 459.636C574.294 460.347 574.408 460.946 574.635 461.435C574.865 461.92 575.178 462.29 575.573 462.543C575.968 462.793 576.417 462.918 576.919 462.918C577.419 462.918 577.867 462.793 578.262 462.543C578.659 462.29 578.972 461.92 579.199 461.435C579.429 460.946 579.544 460.347 579.544 459.636ZM589.534 455.273V464H588.324L583.888 457.599H583.807V464H582.49V455.273H583.709L588.149 461.682H588.23V455.273H589.534ZM591.025 456.406V455.273H597.779V456.406H595.056V464H593.743V456.406H591.025ZM599.271 464V455.273H600.588V459.065H604.939V455.273H606.26V464H604.939V460.195H600.588V464H599.271Z" fill="#27222F" fill-opacity="0.5"/>
<path d="M236.164 45.2727V54H234.847V45.2727H236.164ZM244.886 45.2727V54H243.676L239.24 47.5994H239.159V54H237.842V45.2727H239.061L243.501 51.6818H243.582V45.2727H244.886ZM252.422 54.1193C251.836 54.1193 251.314 54.0185 250.853 53.8168C250.396 53.6151 250.034 53.3352 249.767 52.9773C249.502 52.6165 249.36 52.1989 249.341 51.7244H250.679C250.696 51.983 250.782 52.2074 250.939 52.3977C251.098 52.5852 251.305 52.7301 251.561 52.8324C251.816 52.9347 252.1 52.9858 252.413 52.9858C252.757 52.9858 253.061 52.9261 253.325 52.8068C253.592 52.6875 253.801 52.5213 253.951 52.3082C254.102 52.0923 254.177 51.8438 254.177 51.5625C254.177 51.2699 254.102 51.0128 253.951 50.7912C253.804 50.5668 253.586 50.3906 253.299 50.2628C253.015 50.1349 252.672 50.071 252.268 50.071H251.531V48.9972H252.268C252.592 48.9972 252.876 48.9389 253.12 48.8224C253.368 48.706 253.561 48.544 253.7 48.3366C253.839 48.1264 253.909 47.8807 253.909 47.5994C253.909 47.3295 253.848 47.0952 253.725 46.8963C253.606 46.6946 253.436 46.5369 253.214 46.4233C252.995 46.3097 252.737 46.2528 252.439 46.2528C252.154 46.2528 251.889 46.3054 251.642 46.4105C251.397 46.5128 251.199 46.6605 251.045 46.8537C250.892 47.044 250.809 47.2727 250.798 47.5398H249.524C249.538 47.0682 249.677 46.6534 249.941 46.2955C250.208 45.9375 250.561 45.6577 250.998 45.456C251.436 45.2543 251.922 45.1534 252.456 45.1534C253.015 45.1534 253.498 45.2628 253.904 45.4815C254.314 45.6974 254.629 45.9858 254.85 46.3466C255.075 46.7074 255.186 47.1023 255.183 47.5312C255.186 48.0199 255.049 48.4347 254.774 48.7756C254.501 49.1165 254.137 49.3452 253.683 49.4616V49.5298C254.262 49.6179 254.711 49.848 255.029 50.2202C255.35 50.5923 255.51 51.054 255.507 51.6051C255.51 52.0852 255.376 52.5156 255.106 52.8963C254.839 53.277 254.474 53.5767 254.011 53.7955C253.548 54.0114 253.018 54.1193 252.422 54.1193ZM259.924 54.1193C259.535 54.1136 259.152 54.0426 258.774 53.9062C258.399 53.7699 258.058 53.5426 257.751 53.2244C257.444 52.9062 257.199 52.4787 257.014 51.9418C256.832 51.4048 256.741 50.7344 256.741 49.9304C256.741 49.169 256.816 48.4929 256.967 47.902C257.12 47.3111 257.341 46.8125 257.628 46.4062C257.914 45.9972 258.261 45.6861 258.667 45.473C259.074 45.2599 259.53 45.1534 260.035 45.1534C260.555 45.1534 261.017 45.2557 261.42 45.4602C261.824 45.6648 262.15 45.9474 262.4 46.3082C262.653 46.669 262.814 47.0795 262.882 47.5398H261.582C261.494 47.1761 261.319 46.8793 261.058 46.6491C260.797 46.419 260.456 46.304 260.035 46.304C259.396 46.304 258.897 46.5824 258.539 47.1392C258.184 47.696 258.005 48.4702 258.003 49.4616H258.066C258.217 49.2145 258.402 49.0043 258.62 48.831C258.842 48.6548 259.089 48.5199 259.362 48.4261C259.637 48.3295 259.927 48.2812 260.231 48.2812C260.737 48.2812 261.194 48.4048 261.603 48.652C262.015 48.8963 262.343 49.2344 262.588 49.6662C262.832 50.098 262.954 50.5923 262.954 51.1491C262.954 51.706 262.828 52.2102 262.575 52.6619C262.325 53.1136 261.973 53.4716 261.518 53.7358C261.064 53.9972 260.532 54.125 259.924 54.1193ZM259.92 53.0114C260.255 53.0114 260.555 52.929 260.819 52.7642C261.084 52.5994 261.292 52.3778 261.446 52.0994C261.599 51.821 261.676 51.5099 261.676 51.1662C261.676 50.831 261.601 50.5256 261.45 50.25C261.302 49.9744 261.098 49.7557 260.836 49.5938C260.578 49.4318 260.282 49.3509 259.95 49.3509C259.697 49.3509 259.463 49.3991 259.247 49.4957C259.034 49.5923 258.846 49.7259 258.684 49.8963C258.522 50.0668 258.395 50.2628 258.301 50.4844C258.21 50.7031 258.164 50.9347 258.164 51.179C258.164 51.5057 258.24 51.8082 258.39 52.0866C258.544 52.3651 258.753 52.5895 259.017 52.7599C259.284 52.9276 259.585 53.0114 259.92 53.0114ZM267.322 45.2727H268.92L271.698 52.0568H271.8L274.579 45.2727H276.177V54H274.924V47.6847H274.843L272.269 53.9872H271.229L268.655 47.6804H268.574V54H267.322V45.2727ZM285.432 49.6364C285.432 50.5682 285.262 51.3693 284.921 52.0398C284.58 52.7074 284.112 53.2216 283.519 53.5824C282.928 53.9403 282.256 54.1193 281.503 54.1193C280.747 54.1193 280.073 53.9403 279.479 53.5824C278.888 53.2216 278.422 52.706 278.081 52.0355C277.74 51.3651 277.57 50.5653 277.57 49.6364C277.57 48.7045 277.74 47.9048 278.081 47.2372C278.422 46.5668 278.888 46.0526 279.479 45.6946C280.073 45.3338 280.747 45.1534 281.503 45.1534C282.256 45.1534 282.928 45.3338 283.519 45.6946C284.112 46.0526 284.58 46.5668 284.921 47.2372C285.262 47.9048 285.432 48.7045 285.432 49.6364ZM284.128 49.6364C284.128 48.9261 284.013 48.3281 283.783 47.8423C283.556 47.3537 283.243 46.9844 282.845 46.7344C282.451 46.4815 282.003 46.3551 281.503 46.3551C281 46.3551 280.551 46.4815 280.156 46.7344C279.762 46.9844 279.449 47.3537 279.219 47.8423C278.992 48.3281 278.878 48.9261 278.878 49.6364C278.878 50.3466 278.992 50.946 279.219 51.4347C279.449 51.9205 279.762 52.2898 280.156 52.5426C280.551 52.7926 281 52.9176 281.503 52.9176C282.003 52.9176 282.451 52.7926 282.845 52.5426C283.243 52.2898 283.556 51.9205 283.783 51.4347C284.013 50.946 284.128 50.3466 284.128 49.6364ZM293.878 45.2727V54H292.668L288.231 47.5994H288.151V54H286.834V45.2727H288.052L292.493 51.6818H292.574V45.2727H293.878ZM295.128 46.4062V45.2727H301.882V46.4062H299.159V54H297.847V46.4062H295.128ZM303.135 54V45.2727H304.452V49.0653H308.803V45.2727H310.124V54H308.803V50.1946H304.452V54H303.135ZM316.561 47.5653C316.516 47.1619 316.328 46.8494 315.999 46.6278C315.669 46.4034 315.254 46.2912 314.754 46.2912C314.396 46.2912 314.087 46.348 313.825 46.4616C313.564 46.5724 313.361 46.7259 313.216 46.9219C313.074 47.1151 313.003 47.3352 313.003 47.5824C313.003 47.7898 313.051 47.9687 313.148 48.1193C313.247 48.2699 313.376 48.3963 313.536 48.4986C313.698 48.598 313.871 48.6818 314.055 48.75C314.24 48.8153 314.418 48.8693 314.588 48.9119L315.44 49.1335C315.719 49.2017 316.004 49.294 316.297 49.4105C316.59 49.527 316.861 49.6804 317.111 49.8707C317.361 50.0611 317.563 50.2969 317.716 50.5781C317.872 50.8594 317.95 51.196 317.95 51.5881C317.95 52.0824 317.823 52.5213 317.567 52.9048C317.314 53.2884 316.946 53.5909 316.463 53.8125C315.983 54.0341 315.402 54.1449 314.72 54.1449C314.067 54.1449 313.501 54.0412 313.024 53.8338C312.547 53.6264 312.173 53.3324 311.903 52.9517C311.634 52.5682 311.484 52.1136 311.456 51.5881H312.777C312.803 51.9034 312.905 52.1662 313.084 52.3764C313.266 52.5838 313.497 52.7386 313.778 52.8409C314.063 52.9403 314.374 52.9901 314.712 52.9901C315.084 52.9901 315.415 52.9318 315.705 52.8153C315.997 52.696 316.227 52.5312 316.395 52.321C316.563 52.108 316.646 51.8594 316.646 51.5753C316.646 51.3168 316.573 51.1051 316.425 50.9403C316.28 50.7756 316.082 50.6392 315.832 50.5312C315.585 50.4233 315.305 50.3281 314.993 50.2457L313.962 49.9645C313.263 49.7741 312.709 49.4943 312.3 49.125C311.894 48.7557 311.69 48.267 311.69 47.6591C311.69 47.1562 311.827 46.7173 312.1 46.3423C312.372 45.9673 312.742 45.6761 313.207 45.4688C313.673 45.2585 314.199 45.1534 314.784 45.1534C315.375 45.1534 315.896 45.2571 316.348 45.4645C316.803 45.6719 317.161 45.9574 317.422 46.321C317.683 46.6818 317.82 47.0966 317.831 47.5653H316.561ZM321.546 45.2727H323.042L325.322 49.2401H325.416L327.696 45.2727H329.191L326.025 50.5739V54H324.713V50.5739L321.546 45.2727ZM337.33 49.6364C337.33 50.5682 337.16 51.3693 336.819 52.0398C336.478 52.7074 336.011 53.2216 335.417 53.5824C334.826 53.9403 334.154 54.1193 333.401 54.1193C332.646 54.1193 331.971 53.9403 331.377 53.5824C330.786 53.2216 330.32 52.706 329.979 52.0355C329.638 51.3651 329.468 50.5653 329.468 49.6364C329.468 48.7045 329.638 47.9048 329.979 47.2372C330.32 46.5668 330.786 46.0526 331.377 45.6946C331.971 45.3338 332.646 45.1534 333.401 45.1534C334.154 45.1534 334.826 45.3338 335.417 45.6946C336.011 46.0526 336.478 46.5668 336.819 47.2372C337.16 47.9048 337.33 48.7045 337.33 49.6364ZM336.026 49.6364C336.026 48.9261 335.911 48.3281 335.681 47.8423C335.454 47.3537 335.141 46.9844 334.744 46.7344C334.349 46.4815 333.901 46.3551 333.401 46.3551C332.898 46.3551 332.449 46.4815 332.055 46.7344C331.66 46.9844 331.347 47.3537 331.117 47.8423C330.89 48.3281 330.776 48.9261 330.776 49.6364C330.776 50.3466 330.89 50.946 331.117 51.4347C331.347 51.9205 331.66 52.2898 332.055 52.5426C332.449 52.7926 332.898 52.9176 333.401 52.9176C333.901 52.9176 334.349 52.7926 334.744 52.5426C335.141 52.2898 335.454 51.9205 335.681 51.4347C335.911 50.946 336.026 50.3466 336.026 49.6364ZM344.344 45.2727H345.665V51.0128C345.665 51.6236 345.522 52.1648 345.235 52.6364C344.948 53.1051 344.544 53.4744 344.024 53.7443C343.505 54.0114 342.895 54.1449 342.196 54.1449C341.5 54.1449 340.892 54.0114 340.372 53.7443C339.853 53.4744 339.449 53.1051 339.162 52.6364C338.875 52.1648 338.732 51.6236 338.732 51.0128V45.2727H340.049V50.9062C340.049 51.3011 340.135 51.652 340.309 51.9588C340.485 52.2656 340.733 52.5071 341.054 52.6832C341.375 52.8565 341.756 52.9432 342.196 52.9432C342.64 52.9432 343.022 52.8565 343.343 52.6832C343.667 52.5071 343.914 52.2656 344.084 51.9588C344.257 51.652 344.344 51.3011 344.344 50.9062V45.2727ZM351.984 54L349.564 45.2727H350.949L352.649 52.0312H352.73L354.498 45.2727H355.87L357.639 52.0355H357.72L359.416 45.2727H360.805L358.38 54H357.055L355.218 47.4631H355.15L353.314 54H351.984ZM363.083 45.2727V54H361.766V45.2727H363.083ZM364.76 54V45.2727H366.077V52.8665H370.031V54H364.76ZM371.294 54V45.2727H372.61V52.8665H376.565V54H371.294ZM380.763 54V45.2727H382.08V49.0653H386.43V45.2727H387.751V54H386.43V50.1946H382.08V54H380.763ZM390.166 54H388.769L391.909 45.2727H393.43L396.571 54H395.173L392.706 46.858H392.638L390.166 54ZM390.401 50.5824H394.935V51.6903H390.401V50.5824ZM397.44 45.2727L399.869 52.3807H399.967L402.396 45.2727H403.819L400.679 54H399.157L396.017 45.2727H397.44ZM404.84 54V45.2727H410.311V46.4062H406.156V49.0653H410.026V50.1946H406.156V52.8665H410.362V54H404.84Z" fill="#27222F" fill-opacity="0.5"/>
<path d="M245.681 88.4C243.814 88.4 242.181 88.1333 240.781 87.6C239.381 87.05 238.281 86.2833 237.481 85.3C236.697 84.3 236.281 83.15 236.231 81.85H241.306C241.422 82.6833 241.864 83.3417 242.631 83.825C243.414 84.3083 244.456 84.55 245.756 84.55C246.989 84.55 247.922 84.375 248.556 84.025C249.206 83.6583 249.531 83.1583 249.531 82.525C249.531 82.175 249.431 81.8667 249.231 81.6C249.047 81.3333 248.731 81.1167 248.281 80.95C247.831 80.7833 247.214 80.6667 246.431 80.6L243.656 80.35C241.139 80.1333 239.306 79.55 238.156 78.6C237.006 77.65 236.431 76.3917 236.431 74.825C236.431 73.5583 236.789 72.4833 237.506 71.6C238.222 70.7 239.231 70.0167 240.531 69.55C241.831 69.0833 243.364 68.85 245.131 68.85C246.864 68.85 248.389 69.1083 249.706 69.625C251.039 70.125 252.089 70.8417 252.856 71.775C253.622 72.6917 254.047 73.7667 254.131 75H249.081C248.981 74.35 248.606 73.8083 247.956 73.375C247.322 72.925 246.356 72.7 245.056 72.7C243.922 72.7 243.039 72.875 242.406 73.225C241.789 73.5583 241.481 74.0333 241.481 74.65C241.481 74.9667 241.564 75.25 241.731 75.5C241.897 75.7333 242.189 75.9333 242.606 76.1C243.022 76.2667 243.597 76.3833 244.331 76.45L247.406 76.7C249.156 76.8333 250.556 77.125 251.606 77.575C252.656 78.0083 253.414 78.5917 253.881 79.325C254.364 80.0583 254.606 80.95 254.606 82C254.606 83.2667 254.239 84.3833 253.506 85.35C252.772 86.3167 251.739 87.0667 250.406 87.6C249.072 88.1333 247.497 88.4 245.681 88.4ZM243.181 90.05V86.475H247.606V90.05H243.181ZM243.181 71.225V67.2H247.606V71.225H243.181ZM266.794 68.85C268.411 68.85 269.844 69.1 271.094 69.6C272.361 70.0833 273.377 70.75 274.144 71.6C274.927 72.4333 275.402 73.375 275.569 74.425H270.769C270.536 73.925 270.119 73.5 269.519 73.15C268.919 72.8 268.052 72.625 266.919 72.625C265.702 72.625 264.686 72.8583 263.869 73.325C263.069 73.775 262.469 74.425 262.069 75.275C261.686 76.125 261.494 77.175 261.494 78.425C261.494 79.775 261.711 80.9083 262.144 81.825C262.577 82.7417 263.202 83.4333 264.019 83.9C264.836 84.3667 265.836 84.6 267.019 84.6C267.836 84.6 268.519 84.4917 269.069 84.275C269.636 84.0417 270.061 83.7333 270.344 83.35C270.627 82.95 270.769 82.5167 270.769 82.05C270.769 81.55 270.636 81.1167 270.369 80.75C270.102 80.3667 269.702 80.075 269.169 79.875C268.636 79.675 267.969 79.575 267.169 79.575C266.102 79.575 265.086 79.8083 264.119 80.275C263.152 80.7417 262.269 81.4333 261.469 82.35L259.719 81.15C260.236 80.1167 260.902 79.2 261.719 78.4C262.536 77.5833 263.502 76.9417 264.619 76.475C265.752 76.0083 267.027 75.775 268.444 75.775C270.011 75.775 271.352 76.0333 272.469 76.55C273.586 77.0667 274.444 77.7833 275.044 78.7C275.661 79.6 275.969 80.6583 275.969 81.875C275.969 83.1417 275.611 84.2667 274.894 85.25C274.194 86.2333 273.177 87.0083 271.844 87.575C270.511 88.125 268.877 88.4 266.944 88.4C264.644 88.4 262.727 87.9833 261.194 87.15C259.677 86.3167 258.536 85.1667 257.769 83.7C257.019 82.2333 256.644 80.55 256.644 78.65C256.644 76.75 257.019 75.0583 257.769 73.575C258.536 72.0917 259.669 70.9333 261.169 70.1C262.686 69.2667 264.561 68.85 266.794 68.85ZM288.579 88.4C286.446 88.4 284.588 88 283.004 87.2C281.421 86.3833 280.196 85.2417 279.329 83.775C278.479 82.3083 278.054 80.5917 278.054 78.625C278.054 76.6583 278.479 74.9417 279.329 73.475C280.196 72.0083 281.421 70.875 283.004 70.075C284.588 69.2583 286.446 68.85 288.579 68.85C290.696 68.85 292.538 69.2583 294.104 70.075C295.688 70.875 296.913 72.0083 297.779 73.475C298.646 74.9417 299.079 76.6583 299.079 78.625C299.079 80.5917 298.646 82.3083 297.779 83.775C296.913 85.2417 295.688 86.3833 294.104 87.2C292.538 88 290.696 88.4 288.579 88.4ZM288.579 84.2C290.263 84.2 291.571 83.7167 292.504 82.75C293.438 81.7667 293.904 80.3917 293.904 78.625C293.904 76.8417 293.438 75.4667 292.504 74.5C291.571 73.5333 290.263 73.05 288.579 73.05C286.896 73.05 285.579 73.5333 284.629 74.5C283.679 75.4667 283.204 76.8417 283.204 78.625C283.204 80.3917 283.679 81.7667 284.629 82.75C285.579 83.7167 286.896 84.2 288.579 84.2ZM300.365 91.7L302.94 86.3L303.215 88.175C302.682 88.175 302.199 88.05 301.765 87.8C301.332 87.55 300.982 87.2083 300.715 86.775C300.465 86.3417 300.34 85.8667 300.34 85.35C300.34 84.8167 300.465 84.3417 300.715 83.925C300.982 83.4917 301.332 83.15 301.765 82.9C302.199 82.65 302.682 82.525 303.215 82.525C303.765 82.525 304.257 82.65 304.69 82.9C305.124 83.15 305.465 83.5 305.715 83.95C305.965 84.3833 306.09 84.875 306.09 85.425C306.09 85.925 305.965 86.4583 305.715 87.025C305.482 87.5917 305.074 88.3167 304.49 89.2L302.84 91.7H300.365ZM310.109 69.25H324.784V73.1H311.634L313.709 72.2L312.659 78.925L311.384 78.95C311.751 78.3167 312.251 77.7417 312.884 77.225C313.518 76.7083 314.301 76.3 315.234 76C316.168 75.6833 317.251 75.525 318.484 75.525C320.084 75.525 321.459 75.7917 322.609 76.325C323.776 76.8417 324.676 77.5667 325.309 78.5C325.943 79.4167 326.259 80.4833 326.259 81.7C326.259 83 325.893 84.1583 325.159 85.175C324.443 86.175 323.401 86.9667 322.034 87.55C320.684 88.1167 319.051 88.4 317.134 88.4C315.284 88.4 313.668 88.1333 312.284 87.6C310.918 87.05 309.843 86.3167 309.059 85.4C308.293 84.4667 307.851 83.425 307.734 82.275H312.884C313.051 82.925 313.501 83.45 314.234 83.85C314.968 84.2333 315.934 84.425 317.134 84.425C317.968 84.425 318.676 84.3167 319.259 84.1C319.843 83.8667 320.293 83.55 320.609 83.15C320.926 82.7333 321.084 82.2417 321.084 81.675C321.084 81.1417 320.943 80.6667 320.659 80.25C320.376 79.8333 319.951 79.5167 319.384 79.3C318.818 79.0667 318.118 78.95 317.284 78.95C316.584 78.95 315.959 79.025 315.409 79.175C314.859 79.325 314.376 79.5167 313.959 79.75C313.559 79.9833 313.218 80.2333 312.934 80.5H308.459L310.109 69.25ZM338.325 68.85C341.409 68.85 343.767 69.325 345.4 70.275C347.034 71.2083 347.85 72.5167 347.85 74.2C347.85 75.7 347.142 76.8333 345.725 77.6C344.309 78.3667 342.334 78.7 339.8 78.6V78.1C342.517 77.9 344.634 78.2 346.15 79C347.667 79.8 348.425 81.0667 348.425 82.8C348.425 84.6167 347.559 86.0083 345.825 86.975C344.109 87.925 341.609 88.4 338.325 88.4C335.059 88.4 332.559 87.925 330.825 86.975C329.092 86.0083 328.225 84.6167 328.225 82.8C328.225 81.0667 328.984 79.8 330.5 79C332.034 78.1833 334.159 77.8833 336.875 78.1V78.6C334.342 78.7 332.359 78.3667 330.925 77.6C329.509 76.8333 328.8 75.7 328.8 74.2C328.8 72.5167 329.617 71.2083 331.25 70.275C332.884 69.325 335.242 68.85 338.325 68.85ZM338.325 84.45C339.909 84.45 341.109 84.275 341.925 83.925C342.759 83.5583 343.175 83.0333 343.175 82.35C343.175 81.65 342.759 81.125 341.925 80.775C341.109 80.425 339.909 80.25 338.325 80.25C336.742 80.25 335.534 80.425 334.7 80.775C333.884 81.125 333.475 81.65 333.475 82.35C333.475 83.0333 333.884 83.5583 334.7 83.925C335.534 84.275 336.742 84.45 338.325 84.45ZM338.325 76.675C339.275 76.675 340.067 76.6083 340.7 76.475C341.35 76.325 341.842 76.1083 342.175 75.825C342.525 75.525 342.7 75.1583 342.7 74.725C342.7 74.1083 342.325 73.6333 341.575 73.3C340.825 72.9667 339.742 72.8 338.325 72.8C336.925 72.8 335.85 72.9667 335.1 73.3C334.35 73.6333 333.975 74.1083 333.975 74.725C333.975 75.1583 334.142 75.525 334.475 75.825C334.809 76.1083 335.3 76.325 335.95 76.475C336.6 76.6083 337.392 76.675 338.325 76.675ZM359.665 88.4C358.049 88.4 356.607 88.1583 355.34 87.675C354.09 87.175 353.074 86.5 352.29 85.65C351.524 84.8 351.057 83.8583 350.89 82.825H355.665C355.915 83.325 356.34 83.75 356.94 84.1C357.557 84.45 358.415 84.625 359.515 84.625C360.765 84.625 361.79 84.4 362.59 83.95C363.39 83.4833 363.982 82.825 364.365 81.975C364.765 81.1083 364.965 80.0583 364.965 78.825C364.965 77.475 364.749 76.3417 364.315 75.425C363.882 74.5083 363.249 73.8167 362.415 73.35C361.599 72.8833 360.607 72.65 359.44 72.65C358.607 72.65 357.915 72.7667 357.365 73C356.815 73.2167 356.39 73.5167 356.09 73.9C355.807 74.2833 355.665 74.7167 355.665 75.2C355.665 75.7 355.799 76.1333 356.065 76.5C356.349 76.8667 356.757 77.1583 357.29 77.375C357.824 77.575 358.49 77.675 359.29 77.675C360.357 77.675 361.374 77.4417 362.34 76.975C363.324 76.5083 364.207 75.8167 364.99 74.9L366.74 76.1C366.24 77.1333 365.574 78.0583 364.74 78.875C363.924 79.675 362.957 80.3083 361.84 80.775C360.724 81.2417 359.44 81.475 357.99 81.475C356.44 81.475 355.099 81.2167 353.965 80.7C352.849 80.1833 351.99 79.4667 351.39 78.55C350.79 77.6333 350.482 76.575 350.465 75.375C350.482 74.1083 350.84 72.9833 351.54 72C352.24 71.0167 353.265 70.25 354.615 69.7C355.965 69.1333 357.599 68.85 359.515 68.85C361.815 68.85 363.724 69.2667 365.24 70.1C366.774 70.9333 367.924 72.0833 368.69 73.55C369.457 75.0167 369.832 76.7 369.815 78.6C369.832 80.5 369.457 82.1917 368.69 83.675C367.924 85.1417 366.782 86.3 365.265 87.15C363.765 87.9833 361.899 88.4 359.665 88.4ZM374.309 88.25C373.776 88.25 373.284 88.125 372.834 87.875C372.401 87.625 372.059 87.2833 371.809 86.85C371.559 86.4 371.434 85.9083 371.434 85.375C371.434 84.8417 371.559 84.3583 371.809 83.925C372.059 83.4917 372.401 83.15 372.834 82.9C373.284 82.6333 373.776 82.5 374.309 82.5C374.859 82.5 375.351 82.6333 375.784 82.9C376.217 83.15 376.559 83.4917 376.809 83.925C377.059 84.3583 377.184 84.8417 377.184 85.375C377.184 85.9083 377.059 86.4 376.809 86.85C376.559 87.2833 376.217 87.625 375.784 87.875C375.351 88.125 374.859 88.25 374.309 88.25ZM387.007 69.25V88H381.882V71.05L384.282 73.275L376.207 74.7V70.7L383.207 69.25H387.007ZM389.695 76C389.795 74.5333 390.279 73.2667 391.145 72.2C392.012 71.1167 393.162 70.2917 394.595 69.725C396.045 69.1417 397.679 68.85 399.495 68.85C401.229 68.85 402.737 69.1167 404.02 69.65C405.32 70.1667 406.329 70.8917 407.045 71.825C407.762 72.7583 408.12 73.8417 408.12 75.075C408.12 76.025 407.862 76.9167 407.345 77.75C406.829 78.5667 406.02 79.375 404.92 80.175C403.82 80.9583 402.379 81.7833 400.595 82.65L395.445 85.225L395.245 83.9H408.645V88H390.095V84.4L398.145 79.875C399.395 79.1583 400.362 78.5583 401.045 78.075C401.745 77.575 402.237 77.1167 402.52 76.7C402.82 76.2833 402.97 75.8417 402.97 75.375C402.97 74.8583 402.829 74.4167 402.545 74.05C402.279 73.6667 401.87 73.3667 401.32 73.15C400.77 72.9333 400.095 72.825 399.295 72.825C398.295 72.825 397.479 72.975 396.845 73.275C396.212 73.5583 395.737 73.9417 395.42 74.425C395.104 74.8917 394.912 75.4167 394.845 76H389.695Z" fill="#27222F" fill-opacity="0.9"/>
<line x1="70" y1="158.5" x2="50" y2="158.5" stroke="#C3C5CB"/>
<line x1="70" y1="171.181" x2="60" y2="171.181" stroke="#C3C5CB"/>
<line x1="70" y1="183.862" x2="60" y2="183.862" stroke="#C3C5CB"/>
<line x1="70" y1="196.544" x2="60" y2="196.544" stroke="#C3C5CB"/>
<line x1="70" y1="209.225" x2="60" y2="209.225" stroke="#C3C5CB"/>
<line x1="70" y1="221.906" x2="60" y2="221.906" stroke="#C3C5CB"/>
<line x1="70" y1="234.587" x2="60" y2="234.587" stroke="#C3C5CB"/>
<line x1="70" y1="247.269" x2="50" y2="247.269" stroke="#C3C5CB"/>
<line x1="70" y1="259.95" x2="60" y2="259.95" stroke="#C3C5CB"/>
<line x1="70" y1="272.631" x2="60" y2="272.631" stroke="#C3C5CB"/>
<line x1="70" y1="285.312" x2="60" y2="285.312" stroke="#C3C5CB"/>
<line x1="70" y1="297.994" x2="60" y2="297.994" stroke="#C3C5CB"/>
<line x1="70" y1="310.675" x2="60" y2="310.675" stroke="#C3C5CB"/>
<line x1="70" y1="323.356" x2="60" y2="323.356" stroke="#C3C5CB"/>
<line x1="70" y1="336.038" x2="50" y2="336.038" stroke="#C3C5CB"/>
<line x1="70" y1="348.719" x2="60" y2="348.719" stroke="#C3C5CB"/>
<line x1="70" y1="361.4" x2="60" y2="361.4" stroke="#C3C5CB"/>
<line x1="70" y1="374.082" x2="60" y2="374.082" stroke="#C3C5CB"/>
<line x1="70" y1="386.763" x2="60" y2="386.763" stroke="#C3C5CB"/>
<line x1="70" y1="399.444" x2="60" y2="399.444" stroke="#C3C5CB"/>
<line x1="70" y1="412.125" x2="60" y2="412.125" stroke="#C3C5CB"/>
<line x1="70" y1="424.807" x2="50" y2="424.807" stroke="#C3C5CB"/>
<line x1="70.5" y1="158" x2="70.5" y2="425" stroke="#C3C5CB"/>
<line x1="70.5" y1="425" x2="70.5" y2="445" stroke="#C3C5CB"/>
<line x1="84.502" y1="425" x2="84.502" y2="435" stroke="#C3C5CB"/>
<line x1="98.5039" y1="425" x2="98.5039" y2="435" stroke="#C3C5CB"/>
<line x1="112.506" y1="425" x2="112.506" y2="435" stroke="#C3C5CB"/>
<line x1="126.509" y1="425" x2="126.509" y2="435" stroke="#C3C5CB"/>
<line x1="140.511" y1="425" x2="140.511" y2="435" stroke="#C3C5CB"/>
<line x1="154.513" y1="425" x2="154.513" y2="435" stroke="#C3C5CB"/>
<line x1="168.515" y1="425" x2="168.515" y2="435" stroke="#C3C5CB"/>
<line x1="182.517" y1="425" x2="182.517" y2="435" stroke="#C3C5CB"/>
<line x1="196.519" y1="425" x2="196.519" y2="435" stroke="#C3C5CB"/>
<line x1="210.521" y1="425" x2="210.521" y2="435" stroke="#C3C5CB"/>
<line x1="224.522" y1="425" x2="224.522" y2="435" stroke="#C3C5CB"/>
<line x1="238.525" y1="425" x2="238.525" y2="445" stroke="#C3C5CB"/>
<line x1="252.527" y1="425" x2="252.527" y2="435" stroke="#C3C5CB"/>
<line x1="266.529" y1="425" x2="266.529" y2="435" stroke="#C3C5CB"/>
<line x1="280.531" y1="425" x2="280.531" y2="435" stroke="#C3C5CB"/>
<line x1="294.533" y1="425" x2="294.533" y2="435" stroke="#C3C5CB"/>
<line x1="308.535" y1="425" x2="308.535" y2="435" stroke="#C3C5CB"/>
<line x1="322.537" y1="425" x2="322.537" y2="435" stroke="#C3C5CB"/>
<line x1="336.54" y1="425" x2="336.54" y2="435" stroke="#C3C5CB"/>
<line x1="350.542" y1="425" x2="350.542" y2="435" stroke="#C3C5CB"/>
<line x1="364.544" y1="425" x2="364.544" y2="435" stroke="#C3C5CB"/>
<line x1="378.546" y1="425" x2="378.546" y2="435" stroke="#C3C5CB"/>
<line x1="392.548" y1="425" x2="392.548" y2="435" stroke="#C3C5CB"/>
<line x1="406.55" y1="425" x2="406.55" y2="445" stroke="#C3C5CB"/>
<line x1="420.552" y1="425" x2="420.552" y2="435" stroke="#C3C5CB"/>
<line x1="434.554" y1="425" x2="434.554" y2="435" stroke="#C3C5CB"/>
<line x1="448.557" y1="425" x2="448.557" y2="435" stroke="#C3C5CB"/>
<line x1="462.559" y1="425" x2="462.559" y2="435" stroke="#C3C5CB"/>
<line x1="476.561" y1="425" x2="476.561" y2="435" stroke="#C3C5CB"/>
<line x1="490.562" y1="425" x2="490.562" y2="435" stroke="#C3C5CB"/>
<line x1="504.564" y1="425" x2="504.564" y2="435" stroke="#C3C5CB"/>
<line x1="518.566" y1="425" x2="518.566" y2="435" stroke="#C3C5CB"/>
<line x1="532.568" y1="425" x2="532.568" y2="435" stroke="#C3C5CB"/>
<line x1="546.57" y1="425" x2="546.57" y2="435" stroke="#C3C5CB"/>
<line x1="560.573" y1="425" x2="560.573" y2="435" stroke="#C3C5CB"/>
<line x1="574.575" y1="425" x2="574.575" y2="445" stroke="#C3C5CB"/>
<line x1="575" y1="424.5" x2="70" y2="424.5" stroke="#C3C5CB"/>
<path d="M70 424C101.105 421.626 133.451 427 215.59 406.5C237.919 400.927 271.652 399.512 292.078 388.5C317.089 375.017 343.795 361.5 388.124 339.5C428.541 319.441 422.892 313.121 464.613 282.5C506.334 251.879 521.979 201 575 158" stroke="url(#paint1_linear_773_2959)" stroke-width="4" stroke-linecap="round"/>
<path d="M215.301 406.5C133.325 427 101.044 421.626 70 424H574V158C521.084 201 505.47 251.879 463.831 282.5C422.193 313.121 427.831 319.441 387.494 339.5C343.253 361.5 316.599 375.017 291.639 388.5C271.253 399.512 237.587 400.927 215.301 406.5Z" fill="url(#paint2_linear_773_2959)" fill-opacity="0.5"/>
<circle cx="70" cy="425" r="5" fill="white" stroke="#8661EA" stroke-width="4" stroke-linecap="round"/>
<circle cx="574" cy="159" r="5" fill="white" stroke="#11BDAF" stroke-width="4" stroke-linecap="round"/>
<path d="M20.3647 163.091V152.182H21.0636V163.091H20.3647ZM22.5508 155.565C22.5053 155.162 22.3178 154.849 21.9883 154.628C21.6587 154.403 21.244 154.291 20.744 154.291C20.386 154.291 20.0763 154.348 19.815 154.462C19.5536 154.572 19.3505 154.726 19.2056 154.922C19.0636 155.115 18.9925 155.335 18.9925 155.582C18.9925 155.79 19.0408 155.969 19.1374 156.119C19.2369 156.27 19.3661 156.396 19.5252 156.499C19.6871 156.598 19.8604 156.682 20.0451 156.75C20.2298 156.815 20.4073 156.869 20.5778 156.912L21.43 157.134C21.7085 157.202 21.994 157.294 22.2866 157.411C22.5792 157.527 22.8505 157.68 23.1005 157.871C23.3505 158.061 23.5522 158.297 23.7056 158.578C23.8619 158.859 23.94 159.196 23.94 159.588C23.94 160.082 23.8121 160.521 23.5565 160.905C23.3036 161.288 22.9357 161.591 22.4528 161.812C21.9727 162.034 21.3917 162.145 20.7099 162.145C20.0565 162.145 19.4911 162.041 19.0138 161.834C18.5366 161.626 18.163 161.332 17.8931 160.952C17.6232 160.568 17.4741 160.114 17.4457 159.588H18.7667C18.7923 159.903 18.8945 160.166 19.0735 160.376C19.2553 160.584 19.4869 160.739 19.7681 160.841C20.0522 160.94 20.3633 160.99 20.7013 160.99C21.0735 160.99 21.4045 160.932 21.6942 160.815C21.9869 160.696 22.217 160.531 22.3846 160.321C22.5522 160.108 22.636 159.859 22.636 159.575C22.636 159.317 22.5621 159.105 22.4144 158.94C22.2695 158.776 22.0721 158.639 21.8221 158.531C21.5749 158.423 21.2951 158.328 20.9826 158.246L19.9513 157.964C19.2525 157.774 18.6985 157.494 18.2894 157.125C17.8832 156.756 17.68 156.267 17.68 155.659C17.68 155.156 17.8164 154.717 18.0891 154.342C18.3619 153.967 18.7312 153.676 19.1971 153.469C19.663 153.259 20.1886 153.153 20.7738 153.153C21.3647 153.153 21.886 153.257 22.3377 153.464C22.7923 153.672 23.1502 153.957 23.4116 154.321C23.6729 154.682 23.8093 155.097 23.8207 155.565H22.5508ZM28.0874 163.091V152.182H28.7862V163.091H28.0874ZM30.2734 155.565C30.228 155.162 30.0405 154.849 29.7109 154.628C29.3814 154.403 28.9666 154.291 28.4666 154.291C28.1087 154.291 27.799 154.348 27.5376 154.462C27.2763 154.572 27.0732 154.726 26.9283 154.922C26.7862 155.115 26.7152 155.335 26.7152 155.582C26.7152 155.79 26.7635 155.969 26.8601 156.119C26.9595 156.27 27.0888 156.396 27.2479 156.499C27.4098 156.598 27.5831 156.682 27.7678 156.75C27.9524 156.815 28.13 156.869 28.3004 156.912L29.1527 157.134C29.4311 157.202 29.7166 157.294 30.0092 157.411C30.3018 157.527 30.5732 157.68 30.8232 157.871C31.0732 158.061 31.2749 158.297 31.4283 158.578C31.5845 158.859 31.6626 159.196 31.6626 159.588C31.6626 160.082 31.5348 160.521 31.2791 160.905C31.0263 161.288 30.6584 161.591 30.1754 161.812C29.6953 162.034 29.1143 162.145 28.4325 162.145C27.7791 162.145 27.2138 162.041 26.7365 161.834C26.2592 161.626 25.8857 161.332 25.6158 160.952C25.3459 160.568 25.1967 160.114 25.1683 159.588H26.4893C26.5149 159.903 26.6172 160.166 26.7962 160.376C26.978 160.584 27.2095 160.739 27.4908 160.841C27.7749 160.94 28.0859 160.99 28.424 160.99C28.7962 160.99 29.1271 160.932 29.4169 160.815C29.7095 160.696 29.9396 160.531 30.1072 160.321C30.2749 160.108 30.3587 159.859 30.3587 159.575C30.3587 159.317 30.2848 159.105 30.1371 158.94C29.9922 158.776 29.7947 158.639 29.5447 158.531C29.2976 158.423 29.0178 158.328 28.7053 158.246L27.674 157.964C26.9751 157.774 26.4212 157.494 26.0121 157.125C25.6058 156.756 25.4027 156.267 25.4027 155.659C25.4027 155.156 25.5391 154.717 25.8118 154.342C26.0845 153.967 26.4538 153.676 26.9197 153.469C27.3857 153.259 27.9112 153.153 28.4964 153.153C29.0874 153.153 29.6087 153.257 30.0604 153.464C30.5149 153.672 30.8729 153.957 31.1342 154.321C31.3956 154.682 31.532 155.097 31.5433 155.565H30.2734ZM35.81 163.091V152.182H36.5089V163.091H35.81ZM37.9961 155.565C37.9506 155.162 37.7631 154.849 37.4336 154.628C37.104 154.403 36.6893 154.291 36.1893 154.291C35.8313 154.291 35.5217 154.348 35.2603 154.462C34.9989 154.572 34.7958 154.726 34.6509 154.922C34.5089 155.115 34.4379 155.335 34.4379 155.582C34.4379 155.79 34.4862 155.969 34.5827 156.119C34.6822 156.27 34.8114 156.396 34.9705 156.499C35.1325 156.598 35.3058 156.682 35.4904 156.75C35.6751 156.815 35.8526 156.869 36.0231 156.912L36.8754 157.134C37.1538 157.202 37.4393 157.294 37.7319 157.411C38.0245 157.527 38.2958 157.68 38.5458 157.871C38.7958 158.061 38.9975 158.297 39.1509 158.578C39.3072 158.859 39.3853 159.196 39.3853 159.588C39.3853 160.082 39.2575 160.521 39.0018 160.905C38.7489 161.288 38.381 161.591 37.8981 161.812C37.418 162.034 36.837 162.145 36.1552 162.145C35.5018 162.145 34.9364 162.041 34.4592 161.834C33.9819 161.626 33.6083 161.332 33.3384 160.952C33.0685 160.568 32.9194 160.114 32.891 159.588H34.212C34.2376 159.903 34.3398 160.166 34.5188 160.376C34.7006 160.584 34.9322 160.739 35.2134 160.841C35.4975 160.94 35.8086 160.99 36.1467 160.99C36.5188 160.99 36.8498 160.932 37.1396 160.815C37.4322 160.696 37.6623 160.531 37.8299 160.321C37.9975 160.108 38.0813 159.859 38.0813 159.575C38.0813 159.317 38.0075 159.105 37.8597 158.94C37.7148 158.776 37.5174 158.639 37.2674 158.531C37.0202 158.423 36.7404 158.328 36.4279 158.246L35.3967 157.964C34.6978 157.774 34.1438 157.494 33.7347 157.125C33.3285 156.756 33.1254 156.267 33.1254 155.659C33.1254 155.156 33.2617 154.717 33.5344 154.342C33.8072 153.967 34.1765 153.676 34.6424 153.469C35.1083 153.259 35.6339 153.153 36.2191 153.153C36.81 153.153 37.3313 153.257 37.783 153.464C38.2376 153.672 38.5955 153.957 38.8569 154.321C39.1183 154.682 39.2546 155.097 39.266 155.565H37.9961Z" fill="#27222F" fill-opacity="0.5"/>
<path d="M28.0874 252.091V241.182H28.7862V252.091H28.0874ZM30.2734 244.565C30.228 244.162 30.0405 243.849 29.7109 243.628C29.3814 243.403 28.9666 243.291 28.4666 243.291C28.1087 243.291 27.799 243.348 27.5376 243.462C27.2763 243.572 27.0732 243.726 26.9283 243.922C26.7862 244.115 26.7152 244.335 26.7152 244.582C26.7152 244.79 26.7635 244.969 26.8601 245.119C26.9595 245.27 27.0888 245.396 27.2479 245.499C27.4098 245.598 27.5831 245.682 27.7678 245.75C27.9524 245.815 28.13 245.869 28.3004 245.912L29.1527 246.134C29.4311 246.202 29.7166 246.294 30.0092 246.411C30.3018 246.527 30.5732 246.68 30.8232 246.871C31.0732 247.061 31.2749 247.297 31.4283 247.578C31.5845 247.859 31.6626 248.196 31.6626 248.588C31.6626 249.082 31.5348 249.521 31.2791 249.905C31.0263 250.288 30.6584 250.591 30.1754 250.812C29.6953 251.034 29.1143 251.145 28.4325 251.145C27.7791 251.145 27.2138 251.041 26.7365 250.834C26.2592 250.626 25.8857 250.332 25.6158 249.952C25.3459 249.568 25.1967 249.114 25.1683 248.588H26.4893C26.5149 248.903 26.6172 249.166 26.7962 249.376C26.978 249.584 27.2095 249.739 27.4908 249.841C27.7749 249.94 28.0859 249.99 28.424 249.99C28.7962 249.99 29.1271 249.932 29.4169 249.815C29.7095 249.696 29.9396 249.531 30.1072 249.321C30.2749 249.108 30.3587 248.859 30.3587 248.575C30.3587 248.317 30.2848 248.105 30.1371 247.94C29.9922 247.776 29.7947 247.639 29.5447 247.531C29.2976 247.423 29.0178 247.328 28.7053 247.246L27.674 246.964C26.9751 246.774 26.4212 246.494 26.0121 246.125C25.6058 245.756 25.4027 245.267 25.4027 244.659C25.4027 244.156 25.5391 243.717 25.8118 243.342C26.0845 242.967 26.4538 242.676 26.9197 242.469C27.3857 242.259 27.9112 242.153 28.4964 242.153C29.0874 242.153 29.6087 242.257 30.0604 242.464C30.5149 242.672 30.8729 242.957 31.1342 243.321C31.3956 243.682 31.532 244.097 31.5433 244.565H30.2734ZM35.81 252.091V241.182H36.5089V252.091H35.81ZM37.9961 244.565C37.9506 244.162 37.7631 243.849 37.4336 243.628C37.104 243.403 36.6893 243.291 36.1893 243.291C35.8313 243.291 35.5217 243.348 35.2603 243.462C34.9989 243.572 34.7958 243.726 34.6509 243.922C34.5089 244.115 34.4379 244.335 34.4379 244.582C34.4379 244.79 34.4862 244.969 34.5827 245.119C34.6822 245.27 34.8114 245.396 34.9705 245.499C35.1325 245.598 35.3058 245.682 35.4904 245.75C35.6751 245.815 35.8526 245.869 36.0231 245.912L36.8754 246.134C37.1538 246.202 37.4393 246.294 37.7319 246.411C38.0245 246.527 38.2958 246.68 38.5458 246.871C38.7958 247.061 38.9975 247.297 39.1509 247.578C39.3072 247.859 39.3853 248.196 39.3853 248.588C39.3853 249.082 39.2575 249.521 39.0018 249.905C38.7489 250.288 38.381 250.591 37.8981 250.812C37.418 251.034 36.837 251.145 36.1552 251.145C35.5018 251.145 34.9364 251.041 34.4592 250.834C33.9819 250.626 33.6083 250.332 33.3384 249.952C33.0685 249.568 32.9194 249.114 32.891 248.588H34.212C34.2376 248.903 34.3398 249.166 34.5188 249.376C34.7006 249.584 34.9322 249.739 35.2134 249.841C35.4975 249.94 35.8086 249.99 36.1467 249.99C36.5188 249.99 36.8498 249.932 37.1396 249.815C37.4322 249.696 37.6623 249.531 37.8299 249.321C37.9975 249.108 38.0813 248.859 38.0813 248.575C38.0813 248.317 38.0075 248.105 37.8597 247.94C37.7148 247.776 37.5174 247.639 37.2674 247.531C37.0202 247.423 36.7404 247.328 36.4279 247.246L35.3967 246.964C34.6978 246.774 34.1438 246.494 33.7347 246.125C33.3285 245.756 33.1254 245.267 33.1254 244.659C33.1254 244.156 33.2617 243.717 33.5344 243.342C33.8072 242.967 34.1765 242.676 34.6424 242.469C35.1083 242.259 35.6339 242.153 36.2191 242.153C36.81 242.153 37.3313 242.257 37.783 242.464C38.2376 242.672 38.5955 242.957 38.8569 243.321C39.1183 243.682 39.2546 244.097 39.266 244.565H37.9961Z" fill="#27222F" fill-opacity="0.5"/>
<path d="M35.81 341.091V330.182H36.5089V341.091H35.81ZM37.9961 333.565C37.9506 333.162 37.7631 332.849 37.4336 332.628C37.104 332.403 36.6893 332.291 36.1893 332.291C35.8313 332.291 35.5217 332.348 35.2603 332.462C34.9989 332.572 34.7958 332.726 34.6509 332.922C34.5089 333.115 34.4379 333.335 34.4379 333.582C34.4379 333.79 34.4862 333.969 34.5827 334.119C34.6822 334.27 34.8114 334.396 34.9705 334.499C35.1325 334.598 35.3058 334.682 35.4904 334.75C35.6751 334.815 35.8526 334.869 36.0231 334.912L36.8754 335.134C37.1538 335.202 37.4393 335.294 37.7319 335.411C38.0245 335.527 38.2958 335.68 38.5458 335.871C38.7958 336.061 38.9975 336.297 39.1509 336.578C39.3072 336.859 39.3853 337.196 39.3853 337.588C39.3853 338.082 39.2575 338.521 39.0018 338.905C38.7489 339.288 38.381 339.591 37.8981 339.812C37.418 340.034 36.837 340.145 36.1552 340.145C35.5018 340.145 34.9364 340.041 34.4592 339.834C33.9819 339.626 33.6083 339.332 33.3384 338.952C33.0685 338.568 32.9194 338.114 32.891 337.588H34.212C34.2376 337.903 34.3398 338.166 34.5188 338.376C34.7006 338.584 34.9322 338.739 35.2134 338.841C35.4975 338.94 35.8086 338.99 36.1467 338.99C36.5188 338.99 36.8498 338.932 37.1396 338.815C37.4322 338.696 37.6623 338.531 37.8299 338.321C37.9975 338.108 38.0813 337.859 38.0813 337.575C38.0813 337.317 38.0075 337.105 37.8597 336.94C37.7148 336.776 37.5174 336.639 37.2674 336.531C37.0202 336.423 36.7404 336.328 36.4279 336.246L35.3967 335.964C34.6978 335.774 34.1438 335.494 33.7347 335.125C33.3285 334.756 33.1254 334.267 33.1254 333.659C33.1254 333.156 33.2617 332.717 33.5344 332.342C33.8072 331.967 34.1765 331.676 34.6424 331.469C35.1083 331.259 35.6339 331.153 36.2191 331.153C36.81 331.153 37.3313 331.257 37.783 331.464C38.2376 331.672 38.5955 331.957 38.8569 332.321C39.1183 332.682 39.2546 333.097 39.266 333.565H37.9961Z" fill="#27222F" fill-opacity="0.5"/>
<defs>
<linearGradient id="paint0_linear_773_2959" x1="-1.00285e-05" y1="104.217" x2="673.953" y2="227.067" gradientUnits="userSpaceOnUse">
<stop stop-color="#F6F8FB"/>
<stop offset="1" stop-color="#F6F8FB"/>
</linearGradient>
<linearGradient id="paint1_linear_773_2959" x1="322.065" y1="96.5" x2="322.065" y2="425.5" gradientUnits="userSpaceOnUse">
<stop stop-color="#0EBEAD"/>
<stop offset="1" stop-color="#8661EA"/>
</linearGradient>
<linearGradient id="paint2_linear_773_2959" x1="322" y1="158" x2="322" y2="424" gradientUnits="userSpaceOnUse">
<stop stop-color="#11BDAF" stop-opacity="0.35"/>
<stop offset="1" stop-color="#8661EA" stop-opacity="0"/>
</linearGradient>
</defs>
</svg>
