<svg width="275" height="273" viewBox="0 0 275 273" fill="none" xmlns="http://www.w3.org/2000/svg">
<g filter="url(#filter0_f_807_7455)">
<path d="M133.307 31.5636C136.011 30.5551 138.989 30.5551 141.693 31.5636L172.592 43.0861L203.668 54.1208C206.388 55.0865 208.669 57.0002 210.092 59.511L226.355 88.1993L243.069 116.628C244.531 119.116 245.048 122.048 244.525 124.886L238.543 157.317L233.072 189.837C232.593 192.683 231.105 195.262 228.879 197.099L203.451 218.097L178.356 239.493C176.16 241.366 173.363 242.384 170.476 242.361L137.5 242.102L104.524 242.361C101.637 242.384 98.8398 241.366 96.6435 239.493L71.549 218.097L46.1208 197.099C43.8952 195.262 42.4067 192.683 41.9279 189.837L36.4573 157.317L30.4753 124.886C29.9517 122.048 30.4687 119.116 31.9315 116.628L48.6445 88.1993L64.9079 59.511C66.3312 57.0002 68.6119 55.0865 71.3317 54.1208L102.408 43.0861L133.307 31.5636Z" fill="url(#paint0_linear_807_7455)" fill-opacity="0.35"/>
</g>
<path d="M133.307 43.5636C136.011 42.5551 138.989 42.5551 141.693 43.5636L168.746 53.652L195.955 63.3133C198.675 64.2791 200.955 66.1928 202.379 68.7036L216.618 93.8213L231.251 118.712C232.714 121.2 233.231 124.132 232.707 126.97L227.47 155.364L222.68 183.837C222.201 186.683 220.712 189.262 218.487 191.099L196.223 209.484L174.252 228.217C172.056 230.089 169.258 231.108 166.372 231.085L137.5 230.857L108.628 231.085C105.742 231.108 102.944 230.089 100.748 228.217L78.7765 209.484L56.5131 191.099C54.2876 189.262 52.799 186.683 52.3202 183.837L47.5304 155.364L42.293 126.97C41.7694 124.132 42.2864 121.2 43.7492 118.712L58.3821 93.8213L72.6213 68.7036C74.0447 66.1928 76.3254 64.2791 79.0452 63.3133L106.254 53.652L133.307 43.5636Z" fill="url(#paint1_linear_807_7455)"/>
<path d="M166.153 60.7524L166.161 60.7552L166.168 60.7578L191.121 69.618C193.614 70.5033 195.704 72.2575 197.009 74.559L210.068 97.5939L210.072 97.6008L210.076 97.6076L223.495 120.434C224.836 122.715 225.31 125.402 224.83 128.004L220.027 154.044L220.025 154.051L220.024 154.059L215.632 180.171C215.193 182.78 213.828 185.144 211.788 186.828L191.371 203.688L191.365 203.693L191.359 203.698L171.209 220.878C169.196 222.594 166.632 223.528 163.986 223.507L137.508 223.299L137.5 223.298L137.492 223.299L111.014 223.507C108.368 223.528 105.804 222.594 103.791 220.878L83.6414 203.698L83.6354 203.693L83.6293 203.688L63.212 186.828C61.1719 185.144 59.8074 182.78 59.3685 180.171L54.9759 154.059L54.9746 154.051L54.9732 154.044L50.17 128.004C49.6901 125.402 50.164 122.715 51.5049 120.434L64.9244 97.6076L64.9284 97.6008L64.9323 97.5939L77.9908 74.559C79.2955 72.2575 81.3861 70.5033 83.8793 69.618L108.832 60.7578L108.839 60.7552L108.847 60.7524L133.657 51.5005C136.135 50.5761 138.865 50.5761 141.343 51.5005L166.153 60.7524Z" fill="#21242E" stroke="#17171A" stroke-width="2"/>
<path fill-rule="evenodd" clip-rule="evenodd" d="M161.867 113H130.123C116.306 113 105 124.775 105 139.166V140.834C105 155.225 116.306 167 130.123 167H161.867C162.491 167 163 166.47 163 165.819V145.244C163 144.593 162.491 144.063 161.867 144.063H147.983C147.368 144.063 146.841 144.374 146.525 144.922L134.855 165.173C134.722 165.404 134.467 165.51 134.218 165.438C133.969 165.366 133.803 165.139 133.803 164.87V145.244C133.803 144.593 133.294 144.063 132.669 144.063H123.668C123.457 144.063 123.276 143.952 123.173 143.759C123.07 143.566 123.076 143.347 123.188 143.16L140.244 114.745C140.379 114.518 140.633 114.417 140.881 114.49C141.127 114.564 141.29 114.791 141.29 115.057V134.756C141.29 135.406 141.8 135.936 142.424 135.936H161.867C162.491 135.936 163 135.406 163 134.756V114.18C163 113.53 162.491 113 161.867 113Z" fill="url(#paint2_linear_807_7455)"/>
<defs>
<filter id="filter0_f_807_7455" x="0.276367" y="0.807617" width="274.447" height="271.554" filterUnits="userSpaceOnUse" color-interpolation-filters="sRGB">
<feFlood flood-opacity="0" result="BackgroundImageFix"/>
<feBlend mode="normal" in="SourceGraphic" in2="BackgroundImageFix" result="shape"/>
<feGaussianBlur stdDeviation="15" result="effect1_foregroundBlur_807_7455"/>
</filter>
<linearGradient id="paint0_linear_807_7455" x1="247" y1="30" x2="-11.9169" y2="197.107" gradientUnits="userSpaceOnUse">
<stop stop-color="#00C8A5"/>
<stop offset="0.505878" stop-color="#5983D3"/>
<stop offset="1" stop-color="#AC44FD"/>
</linearGradient>
<linearGradient id="paint1_linear_807_7455" x1="235" y1="42" x2="4.45758" y2="190.794" gradientUnits="userSpaceOnUse">
<stop stop-color="#00C8A5"/>
<stop offset="0.505878" stop-color="#5983D3"/>
<stop offset="1" stop-color="#AC44FD"/>
</linearGradient>
<linearGradient id="paint2_linear_807_7455" x1="163" y1="113" x2="97.3924" y2="158.48" gradientUnits="userSpaceOnUse">
<stop stop-color="#00C8A5"/>
<stop offset="0.505878" stop-color="#5983D3"/>
<stop offset="1" stop-color="#AC44FD"/>
</linearGradient>
</defs>
</svg>
