<svg width="42" height="42" viewBox="0 0 42 42" fill="none" xmlns="http://www.w3.org/2000/svg">
<rect width="42" height="42" rx="21" fill="#17171A"/>
<path d="M30.0858 12.2452C28.4233 11.4317 26.6232 10.8412 24.7482 10.5001C24.7317 10.4995 24.7154 10.5027 24.7003 10.5095C24.6851 10.5163 24.6716 10.5265 24.6607 10.5394C24.4357 10.9724 24.1732 11.5367 23.9981 11.9697C22.0093 11.6548 19.9868 11.6548 17.998 11.9697C17.823 11.5235 17.5605 10.9724 17.323 10.5394C17.3105 10.5132 17.273 10.5001 17.2355 10.5001C15.3604 10.8412 13.5729 11.4317 11.8978 12.2452C11.8853 12.2452 11.8728 12.2584 11.8603 12.2715C8.46022 17.6119 7.5227 22.8081 7.98521 27.9517C7.98521 27.978 7.99771 28.0042 8.02271 28.0174C10.2728 29.7494 12.4353 30.7991 14.5729 31.4946C14.6104 31.5077 14.6479 31.4946 14.6604 31.4683C15.1604 30.7466 15.6104 29.9856 15.9979 29.1852C16.0229 29.1327 15.9979 29.0802 15.9479 29.0671C15.2354 28.7784 14.5604 28.4372 13.8979 28.0436C13.8479 28.0174 13.8479 27.9386 13.8854 27.8993C14.0229 27.7943 14.1604 27.6762 14.2979 27.5712C14.3229 27.545 14.3604 27.545 14.3854 27.5581C18.6855 29.6182 23.3231 29.6182 27.5732 27.5581C27.5982 27.545 27.6357 27.545 27.6607 27.5712C27.7983 27.6893 27.9358 27.7943 28.0733 27.9124C28.1233 27.9517 28.1233 28.0305 28.0608 28.0567C27.4107 28.4635 26.7232 28.7915 26.0107 29.0802C25.9607 29.0933 25.9482 29.1589 25.9607 29.1983C26.3607 29.9987 26.8107 30.7598 27.2982 31.4814C27.3357 31.4946 27.3732 31.5077 27.4107 31.4946C29.5608 30.7991 31.7234 29.7494 33.9734 28.0174C33.9984 28.0042 34.0109 27.978 34.0109 27.9517C34.5609 22.0077 33.0984 16.8509 30.1358 12.2715C30.1233 12.2584 30.1108 12.2452 30.0858 12.2452ZM16.6479 24.8157C15.3604 24.8157 14.2854 23.5691 14.2854 22.0339C14.2854 20.4987 15.3354 19.2521 16.6479 19.2521C17.973 19.2521 19.023 20.5118 19.0105 22.0339C19.0105 23.5691 17.9605 24.8157 16.6479 24.8157ZM25.3607 24.8157C24.0732 24.8157 22.9981 23.5691 22.9981 22.0339C22.9981 20.4987 24.0481 19.2521 25.3607 19.2521C26.6857 19.2521 27.7358 20.5118 27.7232 22.0339C27.7232 23.5691 26.6857 24.8157 25.3607 24.8157Z" fill="white"/>
</svg>
