<svg width="29" height="26" viewBox="0 0 29 26" fill="none" xmlns="http://www.w3.org/2000/svg">
<path fill-rule="evenodd" clip-rule="evenodd" d="M27.781 0.725586H12.7388C6.19137 0.725586 0.833984 6.08281 0.833984 12.6304V13.3893C0.833984 19.9367 6.19137 25.2941 12.7388 25.2941H27.781C28.077 25.2941 28.3181 25.053 28.3181 24.757V15.3956C28.3181 15.0996 28.077 14.8585 27.781 14.8585H21.202C20.9108 14.8585 20.661 14.9998 20.5112 15.2494L14.9812 24.463C14.9182 24.5679 14.7973 24.6162 14.6792 24.5836C14.5612 24.5508 14.4825 24.4475 14.4825 24.3248V15.3956C14.4825 15.0996 14.2415 14.8585 13.9456 14.8585H9.68018C9.5802 14.8585 9.49422 14.8078 9.4453 14.7202C9.39688 14.6322 9.39968 14.5327 9.45272 14.4476L17.5347 1.51947C17.5991 1.41636 17.7193 1.37024 17.8366 1.40368C17.9532 1.43728 18.0308 1.54022 18.0308 1.66161V10.6239C18.0308 10.9199 18.2721 11.161 18.5679 11.161H27.781C28.077 11.161 28.3181 10.9199 28.3181 10.6239V1.26253C28.3181 0.966551 28.077 0.725586 27.781 0.725586Z" fill="white"/>
</svg>
