<svg width="156" height="25" viewBox="0 0 156 25" fill="none" xmlns="http://www.w3.org/2000/svg">
<path d="M152.768 5.27625L148.632 14.9428C148.59 15.0407 148.499 15.1008 148.392 15.1005C148.286 15.1005 148.195 15.0403 148.153 14.9423L144.042 5.27674C144.001 5.17874 143.91 5.11829 143.803 5.11829H140.954C140.864 5.11829 140.786 5.16029 140.737 5.23589C140.687 5.31149 140.679 5.39978 140.715 5.48246L146.639 19.1078C146.668 19.1759 146.669 19.2458 146.639 19.3143L146.448 19.7603C146.447 19.762 146.446 19.7633 146.446 19.7651C145.815 21.1567 145.132 21.7086 143.975 21.7086C143.187 21.7086 142.4 21.4224 141.792 20.9408C141.729 20.8914 141.656 20.8741 141.578 20.8899C141.5 20.9057 141.44 20.9508 141.402 21.0206L140.342 22.9698C140.282 23.0811 140.309 23.2168 140.408 23.2966C141.311 24.0241 142.691 24.4427 144.001 24.4427C146.34 24.4427 148.128 23.4708 149.416 20.2923C149.417 20.2902 149.418 20.2882 149.418 20.2861L155.833 5.48229C155.868 5.39945 155.861 5.31116 155.811 5.23573C155.762 5.16029 155.684 5.11829 155.594 5.11829H153.007C152.901 5.11829 152.81 5.17858 152.768 5.27625ZM10.2296 19.4212C13.1551 19.4212 15.6626 18.4114 17.3699 16.5355C17.465 16.4314 17.4594 16.2695 17.3571 16.1722L15.5196 14.4224C15.4165 14.3242 15.2528 14.327 15.1536 14.4291C13.8447 15.7743 12.2495 16.4239 10.4136 16.4239C6.60096 16.4239 3.84065 13.7421 3.84065 9.95587C3.84065 6.17027 6.60096 3.4882 10.4136 3.4882C12.25 3.4882 13.8459 4.13846 15.1548 5.46121C15.2538 5.56152 15.4152 5.56415 15.5181 5.4678L17.3546 3.7402C17.458 3.64319 17.4645 3.48013 17.3691 3.37554C15.6618 1.5002 13.1554 0.491211 10.2559 0.491211C4.60291 0.491211 0.396484 4.46128 0.396484 9.95587C0.396484 15.4513 4.60291 19.4212 10.2296 19.4212ZM22.0293 6.40728V5.37853C22.0293 5.23523 21.9125 5.11829 21.7691 5.11829H19.1606C19.0173 5.11829 18.9004 5.23523 18.9004 5.37853V18.8981C18.9004 19.0414 19.0173 19.1582 19.1606 19.1582H21.9267C22.0701 19.1582 22.1869 19.0414 22.1869 18.8981V12.3487C22.1869 9.48284 23.7643 8.01053 26.2624 8.01053C26.4138 8.01053 26.5656 8.0214 26.7306 8.04281C26.8076 8.05269 26.8779 8.03161 26.9362 7.98022C26.9943 7.929 27.0245 7.86229 27.0245 7.78472V5.2242C27.0245 5.15107 26.9981 5.08881 26.9461 5.03775C26.894 4.98702 26.8306 4.96232 26.7578 4.96396C24.882 5.01008 23.4321 5.55048 22.4809 6.58352C22.4068 6.66406 22.2968 6.68959 22.195 6.64989C22.0929 6.61004 22.0293 6.51665 22.0293 6.40728ZM39.1719 5.27625L35.0366 14.9428C34.9948 15.0407 34.9034 15.1008 34.7968 15.1005C34.6904 15.1005 34.5993 15.0403 34.5578 14.9423L30.4469 5.27674C30.4052 5.17874 30.3142 5.11829 30.2076 5.11829H27.3585C27.2683 5.11829 27.1905 5.16029 27.1411 5.23589C27.0914 5.31149 27.0836 5.39978 27.1199 5.48246L33.0428 19.1078C33.0725 19.1759 33.0727 19.2458 33.0435 19.3143L32.8523 19.7603C32.8515 19.762 32.851 19.7633 32.8501 19.7651C32.2193 21.1567 31.5358 21.7086 30.3794 21.7086C29.5918 21.7086 28.8041 21.4224 28.1964 20.9408C28.1338 20.8914 28.0605 20.8741 27.9826 20.8899C27.9045 20.9057 27.8439 20.9508 27.806 21.0206L26.7465 22.9698C26.6862 23.0811 26.7132 23.2168 26.812 23.2966C27.7153 24.0241 29.0953 24.4427 30.4057 24.4427C32.7447 24.4427 34.5328 23.4708 35.8204 20.2923C35.8213 20.2902 35.8221 20.2882 35.8229 20.2861L42.2369 5.48229C42.2728 5.39945 42.2654 5.31116 42.216 5.23573C42.1662 5.16029 42.0887 5.11829 41.9984 5.11829H39.4115C39.3051 5.11829 39.2139 5.17858 39.1719 5.27625ZM50.879 4.96067C49.2003 4.96067 47.7428 5.46401 46.665 6.48716C46.5879 6.56013 46.4807 6.57956 46.3832 6.5374C46.2852 6.4954 46.2252 6.40465 46.2252 6.29841V5.37853C46.2252 5.23523 46.1085 5.11829 45.9652 5.11829H43.3569C43.2136 5.11829 43.0968 5.23523 43.0968 5.37853V23.9985C43.0968 24.142 43.2136 24.2588 43.3569 24.2588H46.1228C46.2661 24.2588 46.3832 24.142 46.3832 23.9985V18.0849C46.3832 17.9795 46.4418 17.8894 46.5379 17.8466C46.6344 17.8043 46.7401 17.8211 46.8182 17.8921C47.9034 18.8762 49.3102 19.3421 50.879 19.3421C54.5948 19.3421 57.4254 17.0109 57.9248 13.3279C57.9353 13.2508 57.9141 13.1803 57.8629 13.1215C57.8118 13.063 57.7446 13.0324 57.667 13.0324H54.8107C54.6862 13.0324 54.5811 13.1177 54.5559 13.2403C54.1351 15.2788 52.5343 16.529 50.5111 16.529C48.1446 16.529 46.3307 14.8201 46.3307 12.1384C46.3307 9.45665 48.1446 7.74766 50.5111 7.74766C52.5425 7.74766 54.1479 9.00766 54.561 11.0615C54.5857 11.1842 54.691 11.2706 54.8161 11.2706H57.6695C57.7472 11.2706 57.8141 11.2399 57.8655 11.1813C57.9167 11.1228 57.9383 11.0526 57.9278 10.9756C57.4361 7.29999 54.6019 4.96067 50.879 4.96067ZM66.5272 16.2317C66.069 16.5051 65.5148 16.6342 64.9424 16.6342C63.6806 16.6342 62.9971 15.8981 62.9971 14.5309V8.11314C62.9971 7.96985 63.114 7.85274 63.2573 7.85274H66.4963C66.6397 7.85274 66.7565 7.7358 66.7565 7.59251V5.48411C66.7565 5.34065 66.6397 5.22387 66.4963 5.22387H63.2573C63.114 5.22387 62.9971 5.10709 62.9971 4.96363V2.27662C62.9971 2.13316 62.88 2.01606 62.7367 2.01606H59.9709C59.8275 2.01606 59.7107 2.13316 59.7107 2.27662C59.7107 7.45547 59.7107 7.29307 59.7107 14.6096C59.7107 17.712 61.4721 19.3421 64.5483 19.3421C65.651 19.3421 66.7542 19.0681 67.5375 18.5199C67.637 18.4501 67.6749 18.3249 67.6304 18.2113L66.9026 16.36C66.8739 16.2863 66.8194 16.2346 66.7446 16.2091C66.6699 16.1832 66.5951 16.1911 66.5272 16.2317ZM74.8991 19.3421C79.2636 19.3421 82.3922 16.345 82.3922 12.1384C82.3922 7.93163 79.2636 4.96067 74.8991 4.96067C70.998 4.96067 68.044 7.39321 67.5168 10.9721C67.5056 11.0497 67.5262 11.1208 67.5776 11.1803C67.6288 11.2396 67.6961 11.2706 67.7745 11.2706H70.5938C70.719 11.2706 70.8242 11.1842 70.8489 11.0615C71.2619 9.00766 72.8672 7.74766 74.8991 7.74766C77.2916 7.74766 79.0796 9.45665 79.0796 12.1384C79.0796 14.8201 77.2916 16.529 74.8991 16.529C72.8756 16.529 71.275 15.2788 70.854 13.2403C70.8288 13.1181 70.7241 13.0324 70.5994 13.0324H67.7783C67.6996 13.0324 67.6322 13.0635 67.581 13.1232C67.53 13.1825 67.509 13.2539 67.5207 13.3315C68.0582 16.9004 71.0074 19.3421 74.8991 19.3421ZM92.1645 4.96067C90.3722 4.96067 88.8408 5.48328 87.7632 6.47531C87.6857 6.54679 87.5794 6.56441 87.4828 6.52208C87.3861 6.47959 87.3269 6.38933 87.3269 6.28359V5.37853C87.3269 5.23523 87.2102 5.11829 87.0667 5.11829H84.4586C84.3151 5.11829 84.1983 5.23523 84.1983 5.37853V18.8981C84.1983 19.0414 84.3151 19.1582 84.4586 19.1582H87.2243C87.3678 19.1582 87.4846 19.0414 87.4846 18.8981V12.0595C87.4846 9.24615 89.0623 7.82655 91.4024 7.82655C93.5057 7.82655 94.7412 9.03582 94.7412 11.5336V18.8981C94.7412 19.0414 94.8581 19.1582 95.0017 19.1582H97.7675C97.9109 19.1582 98.0277 19.0414 98.0277 18.8981V11.1128C98.0277 6.88032 95.53 4.96067 92.1645 4.96067ZM114.189 12.2174C114.189 7.82655 111.192 4.96067 107.09 4.96067C102.91 4.96067 99.8339 7.95799 99.8339 12.1384C99.8339 16.3186 102.884 19.3421 107.59 19.3421C109.913 19.3421 111.824 18.6146 113.089 17.2298C113.179 17.1318 113.181 16.9835 113.094 16.8834L111.662 15.2385C111.614 15.1835 111.553 15.1532 111.48 15.1494C111.406 15.1453 111.342 15.1686 111.289 15.2187C110.324 16.1169 109.146 16.5551 107.669 16.5551C105.357 16.5551 103.703 15.3801 103.197 13.5188C103.174 13.4376 103.19 13.359 103.241 13.2922C103.292 13.2254 103.364 13.19 103.448 13.19H113.896C114.032 13.19 114.145 13.0848 114.155 12.9484C114.174 12.6903 114.189 12.4161 114.189 12.2174ZM107.09 7.59003C109.134 7.59003 110.634 8.84147 111.009 10.6961C111.025 10.775 111.006 10.8499 110.955 10.9123C110.904 10.9747 110.834 11.0078 110.754 11.0078H103.408C103.326 11.0078 103.256 10.9741 103.205 10.91C103.154 10.8464 103.136 10.7705 103.154 10.6905C103.574 8.81759 105.073 7.59003 107.09 7.59003ZM119.384 6.40728V5.37853C119.384 5.23523 119.268 5.11829 119.124 5.11829H116.516C116.373 5.11829 116.256 5.23523 116.256 5.37853V18.8981C116.256 19.0414 116.373 19.1582 116.516 19.1582H119.282C119.425 19.1582 119.542 19.0414 119.542 18.8981V12.3487C119.542 9.48284 121.119 8.01053 123.618 8.01053C123.769 8.01053 123.921 8.0214 124.086 8.04281C124.163 8.05269 124.233 8.03161 124.291 7.98022C124.35 7.929 124.38 7.86229 124.38 7.78472V5.2242C124.38 5.15107 124.353 5.08881 124.301 5.03775C124.249 4.98702 124.186 4.96232 124.113 4.96396C122.237 5.01008 120.787 5.55048 119.836 6.58352C119.762 6.66406 119.652 6.68959 119.55 6.64989C119.448 6.61004 119.384 6.51665 119.384 6.40728ZM136.492 5.37853V6.32888C136.492 6.43495 136.433 6.52587 136.336 6.56803C136.238 6.61003 136.131 6.59126 136.054 6.51862C134.918 5.45034 133.365 4.96067 131.629 4.96067C127.852 4.96067 124.911 7.32469 124.565 10.9858C124.557 11.0615 124.58 11.1292 124.631 11.1854C124.682 11.2414 124.748 11.2706 124.824 11.2706H127.635C127.765 11.2706 127.873 11.1775 127.893 11.0495C128.197 9.05493 129.874 7.74766 132.128 7.74766C134.6 7.74766 136.388 9.3514 136.388 11.7176C136.388 14.1104 134.6 15.7405 132.128 15.7405C130.112 15.7405 128.559 14.678 128.035 13.0107V13.0324H124.96C124.878 13.0324 124.808 13.0662 124.757 13.1301C124.706 13.1938 124.688 13.2698 124.706 13.3496C125.412 16.5057 128.17 18.5275 131.629 18.5275C133.298 18.5275 134.783 18.0566 135.903 17.0807C135.982 17.0122 136.087 16.997 136.182 17.0402C136.277 17.0835 136.335 17.1728 136.335 17.2774V17.3968C136.335 20.2362 134.968 21.6559 131.865 21.6559C130.035 21.6559 128.158 21.0738 126.913 20.151C126.852 20.1059 126.782 20.0904 126.707 20.105C126.632 20.1202 126.574 20.1615 126.535 20.2271L125.33 22.2484C125.262 22.363 125.291 22.5086 125.397 22.5891C127.011 23.8091 129.518 24.4427 132.049 24.4427C136.966 24.4427 139.621 22.1291 139.621 17.0287V5.37853C139.621 5.23523 139.504 5.11829 139.361 5.11829H136.753C136.609 5.11829 136.492 5.23523 136.492 5.37853Z" fill="#141919"/>
</svg>
