<svg width="29" height="26" viewBox="0 0 29 26" fill="none" xmlns="http://www.w3.org/2000/svg">
<mask id="mask0_725_1414" style="mask-type:luminance" maskUnits="userSpaceOnUse" x="0" y="0" width="29" height="26">
<path d="M27.781 0.725586H12.7388C6.19137 0.725586 0.833984 6.08281 0.833984 12.6304V13.3893C0.833984 19.9367 6.19137 25.2941 12.7388 25.2941H27.781C28.077 25.2941 28.3181 25.053 28.3181 24.757V15.3956C28.3181 15.0996 28.077 14.8585 27.781 14.8585H21.202C20.9108 14.8585 20.661 14.9998 20.5112 15.2494L14.9812 24.463C14.9182 24.5679 14.7973 24.6162 14.6792 24.5836C14.5612 24.5508 14.4825 24.4475 14.4825 24.3248V15.3956C14.4825 15.0996 14.2415 14.8585 13.9456 14.8585H9.68018C9.5802 14.8585 9.49422 14.8078 9.4453 14.7202C9.39688 14.6322 9.39968 14.5327 9.45272 14.4476L17.5347 1.51947C17.5991 1.41636 17.7193 1.37024 17.8366 1.40368C17.9532 1.43728 18.0308 1.54022 18.0308 1.66161V10.6239C18.0308 10.9199 18.2721 11.161 18.5679 11.161H27.781C28.077 11.161 28.3181 10.9199 28.3181 10.6239V1.26253C28.3181 0.966551 28.077 0.725586 27.781 0.725586Z" fill="white"/>
</mask>
<g mask="url(#mask0_725_1414)">
<path fill-rule="evenodd" clip-rule="evenodd" d="M-6.35742 11.7492L-5.49107 10.9883L16.2231 35.7073L15.3569 36.4683L-6.35742 11.7492Z" fill="#AF41FF"/>
<path fill-rule="evenodd" clip-rule="evenodd" d="M-5.53711 11.0299L-5.39629 10.9062L16.318 35.6253L16.1771 35.749L-5.53711 11.0299Z" fill="#AE42FF"/>
<path fill-rule="evenodd" clip-rule="evenodd" d="M-5.44336 10.9469L-5.30254 10.8232L16.4118 35.5423L16.2708 35.666L-5.44336 10.9469Z" fill="#AE42FE"/>
<path fill-rule="evenodd" clip-rule="evenodd" d="M-5.34961 10.8649L-5.20862 10.7412L16.5056 35.4603L16.3647 35.584L-5.34961 10.8649Z" fill="#AD43FE"/>
<path fill-rule="evenodd" clip-rule="evenodd" d="M-5.25586 10.7819L-5.11504 10.6582L16.5991 35.3773L16.4583 35.501L-5.25586 10.7819Z" fill="#AC43FE"/>
<path fill-rule="evenodd" clip-rule="evenodd" d="M-5.16211 10.6999L-5.02129 10.5762L16.693 35.2952L16.5521 35.4189L-5.16211 10.6999Z" fill="#AC44FD"/>
<path fill-rule="evenodd" clip-rule="evenodd" d="M-5.06836 10.6169L-4.92737 10.4932L16.7868 35.2122L16.646 35.3359L-5.06836 10.6169Z" fill="#AB44FD"/>
<path fill-rule="evenodd" clip-rule="evenodd" d="M-4.97461 10.5348L-4.83362 10.4111L16.8806 35.1302L16.7397 35.2539L-4.97461 10.5348Z" fill="#AA45FD"/>
<path fill-rule="evenodd" clip-rule="evenodd" d="M-4.88086 10.4518L-4.74004 10.3281L16.9743 35.0472L16.8333 35.1709L-4.88086 10.4518Z" fill="#AA45FC"/>
<path fill-rule="evenodd" clip-rule="evenodd" d="M-4.78711 10.3698L-4.64612 10.2461L17.0681 34.9651L16.9272 35.0888L-4.78711 10.3698Z" fill="#A946FC"/>
<path fill-rule="evenodd" clip-rule="evenodd" d="M-4.69336 10.2868L-4.55237 10.1631L17.1618 34.8821L17.021 35.0058L-4.69336 10.2868Z" fill="#A846FC"/>
<path fill-rule="evenodd" clip-rule="evenodd" d="M-4.59961 10.2047L-4.45879 10.0811L17.2555 34.8001L17.1146 34.9238L-4.59961 10.2047Z" fill="#A847FB"/>
<path fill-rule="evenodd" clip-rule="evenodd" d="M-4.50391 10.1217L-4.36308 9.99805L17.3513 34.7171L17.2103 34.8408L-4.50391 10.1217Z" fill="#A747FB"/>
<path fill-rule="evenodd" clip-rule="evenodd" d="M-4.41016 10.0397L-4.26917 9.91602L17.445 34.6351L17.3042 34.7588L-4.41016 10.0397Z" fill="#A648FA"/>
<path fill-rule="evenodd" clip-rule="evenodd" d="M-4.31641 9.9567L-4.17558 9.83301L17.5388 34.5521L17.3978 34.6758L-4.31641 9.9567Z" fill="#A548FA"/>
<path fill-rule="evenodd" clip-rule="evenodd" d="M-4.22266 9.87467L-4.08183 9.75098L17.6325 34.47L17.4915 34.5937L-4.22266 9.87467Z" fill="#A549FA"/>
<path fill-rule="evenodd" clip-rule="evenodd" d="M-4.12891 9.79166L-3.98792 9.66797L17.7263 34.387L17.5854 34.5107L-4.12891 9.79166Z" fill="#A449F9"/>
<path fill-rule="evenodd" clip-rule="evenodd" d="M-4.03516 9.70963L-3.89433 9.58594L17.8198 34.305L17.679 34.4287L-4.03516 9.70963Z" fill="#A34AF9"/>
<path fill-rule="evenodd" clip-rule="evenodd" d="M-3.94141 9.62662L-3.80058 9.50293L17.9138 34.222L17.7728 34.3457L-3.94141 9.62662Z" fill="#A34AF9"/>
<path fill-rule="evenodd" clip-rule="evenodd" d="M-3.84766 9.54459L-3.70667 9.4209L18.0075 34.14L17.8667 34.2638L-3.84766 9.54459Z" fill="#A24BF8"/>
<path fill-rule="evenodd" clip-rule="evenodd" d="M-3.75391 9.46158L-3.61292 9.33789L18.1013 34.057L17.9604 34.1808L-3.75391 9.46158Z" fill="#A14CF8"/>
<path fill-rule="evenodd" clip-rule="evenodd" d="M-3.66016 9.37955L-3.51933 9.25586L18.195 33.9749L18.054 34.0988L-3.66016 9.37955Z" fill="#A14CF8"/>
<path fill-rule="evenodd" clip-rule="evenodd" d="M-3.56641 9.29655L-3.42542 9.17285L18.2888 33.8919L18.1479 34.0158L-3.56641 9.29655Z" fill="#A04DF7"/>
<path fill-rule="evenodd" clip-rule="evenodd" d="M-3.4707 9.21468L-3.32971 9.09082L18.3845 33.8099L18.2436 33.9337L-3.4707 9.21468Z" fill="#9F4DF7"/>
<path fill-rule="evenodd" clip-rule="evenodd" d="M-3.37695 9.13167L-3.23613 9.00781L18.4782 33.7269L18.3372 33.8507L-3.37695 9.13167Z" fill="#9F4EF7"/>
<path fill-rule="evenodd" clip-rule="evenodd" d="M-3.2832 9.04964L-3.14221 8.92578L18.572 33.6448L18.4311 33.7687L-3.2832 9.04964Z" fill="#9E4EF6"/>
<path fill-rule="evenodd" clip-rule="evenodd" d="M-3.18945 8.96663L-3.04846 8.84277L18.6657 33.5618L18.5249 33.6857L-3.18945 8.96663Z" fill="#9D4FF6"/>
<path fill-rule="evenodd" clip-rule="evenodd" d="M-3.0957 8.8846L-2.95488 8.76074L18.7595 33.4798L18.6185 33.6037L-3.0957 8.8846Z" fill="#9C4FF5"/>
<path fill-rule="evenodd" clip-rule="evenodd" d="M-3.00195 8.80159L-2.86113 8.67773L18.8532 33.3968L18.7122 33.5207L-3.00195 8.80159Z" fill="#9C50F5"/>
<path fill-rule="evenodd" clip-rule="evenodd" d="M-2.9082 8.71956L-2.76721 8.5957L18.947 33.3148L18.8061 33.4386L-2.9082 8.71956Z" fill="#9B50F5"/>
<path fill-rule="evenodd" clip-rule="evenodd" d="M-2.81445 8.63655L-2.67363 8.5127L19.0407 33.2318L18.8997 33.3556L-2.81445 8.63655Z" fill="#9A51F4"/>
<path fill-rule="evenodd" clip-rule="evenodd" d="M-2.7207 8.55452L-2.57988 8.43066L19.1345 33.1497L18.9935 33.2736L-2.7207 8.55452Z" fill="#9A52F4"/>
<path fill-rule="evenodd" clip-rule="evenodd" d="M-2.62695 8.47152L-2.48596 8.34766L19.2282 33.0667L19.0874 33.1906L-2.62695 8.47152Z" fill="#9952F4"/>
<path fill-rule="evenodd" clip-rule="evenodd" d="M-2.53125 8.38948L-2.39043 8.26562L19.3237 32.9847L19.1829 33.1085L-2.53125 8.38948Z" fill="#9853F3"/>
<path fill-rule="evenodd" clip-rule="evenodd" d="M-2.4375 8.30648L-2.29668 8.18262L19.4177 32.9017L19.2767 33.0255L-2.4375 8.30648Z" fill="#9753F3"/>
<path fill-rule="evenodd" clip-rule="evenodd" d="M-2.34375 8.22444L-2.20276 8.10059L19.5114 32.8196L19.3706 32.9435L-2.34375 8.22444Z" fill="#9754F3"/>
<path fill-rule="evenodd" clip-rule="evenodd" d="M-2.25 8.14144L-2.10901 8.01758L19.6052 32.7366L19.4643 32.8605L-2.25 8.14144Z" fill="#9654F2"/>
<path fill-rule="evenodd" clip-rule="evenodd" d="M-2.15625 8.05941L-2.01543 7.93555L19.6989 32.6546L19.5579 32.7785L-2.15625 8.05941Z" fill="#9555F2"/>
<path fill-rule="evenodd" clip-rule="evenodd" d="M-2.0625 7.9764L-1.92151 7.85254L19.7927 32.5716L19.6518 32.6955L-2.0625 7.9764Z" fill="#9555F1"/>
<path fill-rule="evenodd" clip-rule="evenodd" d="M-1.96875 7.89437L-1.82776 7.77051L19.8864 32.4896L19.7456 32.6134L-1.96875 7.89437Z" fill="#9456F1"/>
<path fill-rule="evenodd" clip-rule="evenodd" d="M-1.875 7.81136L-1.73418 7.6875L19.9802 32.4066L19.8392 32.5304L-1.875 7.81136Z" fill="#9356F1"/>
<path fill-rule="evenodd" clip-rule="evenodd" d="M-1.78125 7.72933L-1.64026 7.60547L20.0739 32.3245L19.9331 32.4484L-1.78125 7.72933Z" fill="#9257F0"/>
<path fill-rule="evenodd" clip-rule="evenodd" d="M-1.6875 7.64632L-1.54651 7.52246L20.1677 32.2415L20.0268 32.3654L-1.6875 7.64632Z" fill="#9258F0"/>
<path fill-rule="evenodd" clip-rule="evenodd" d="M-1.59375 7.56429L-1.45293 7.44043L20.2614 32.1595L20.1204 32.2833L-1.59375 7.56429Z" fill="#9158F0"/>
<path fill-rule="evenodd" clip-rule="evenodd" d="M-1.49805 7.48128L-1.35722 7.35742L20.3571 32.0765L20.2161 32.2003L-1.49805 7.48128Z" fill="#9059EF"/>
<path fill-rule="evenodd" clip-rule="evenodd" d="M-1.4043 7.39925L-1.26331 7.27539L20.4509 31.9945L20.31 32.1183L-1.4043 7.39925Z" fill="#9059EF"/>
<path fill-rule="evenodd" clip-rule="evenodd" d="M-1.31055 7.31624L-1.16972 7.19238L20.5446 31.9114L20.4036 32.0353L-1.31055 7.31624Z" fill="#8F5AEE"/>
<path fill-rule="evenodd" clip-rule="evenodd" d="M-1.2168 7.23421L-1.07597 7.11035L20.6384 31.8294L20.4974 31.9533L-1.2168 7.23421Z" fill="#8E5AEE"/>
<path fill-rule="evenodd" clip-rule="evenodd" d="M-1.12305 7.1512L-0.982059 7.02734L20.7321 31.7464L20.5913 31.8703L-1.12305 7.1512Z" fill="#8D5BEE"/>
<path fill-rule="evenodd" clip-rule="evenodd" d="M-1.0293 7.06917L-0.888473 6.94531L20.8257 31.6644L20.6849 31.7882L-1.0293 7.06917Z" fill="#8D5CED"/>
<path fill-rule="evenodd" clip-rule="evenodd" d="M-0.935547 6.98616L-0.794723 6.8623L20.9196 31.5814L20.7786 31.7052L-0.935547 6.98616Z" fill="#8C5CED"/>
<path fill-rule="evenodd" clip-rule="evenodd" d="M-0.841797 6.90413L-0.700809 6.78027L21.0134 31.4995L20.8725 31.6232L-0.841797 6.90413Z" fill="#8B5DED"/>
<path fill-rule="evenodd" clip-rule="evenodd" d="M-0.748047 6.82112L-0.607059 6.69727L21.1071 31.4165L20.9663 31.5402L-0.748047 6.82112Z" fill="#8A5DEC"/>
<path fill-rule="evenodd" clip-rule="evenodd" d="M-0.654297 6.73909L-0.513473 6.61523L21.2009 31.3345L21.0599 31.4582L-0.654297 6.73909Z" fill="#8A5EEC"/>
<path fill-rule="evenodd" clip-rule="evenodd" d="M-0.560547 6.65609L-0.419559 6.53223L21.2946 31.2514L21.1538 31.3751L-0.560547 6.65609Z" fill="#895EEB"/>
<path fill-rule="evenodd" clip-rule="evenodd" d="M-0.464844 6.57389L-0.323855 6.4502L21.3903 31.1693L21.2495 31.2929L-0.464844 6.57389Z" fill="#885FEB"/>
<path fill-rule="evenodd" clip-rule="evenodd" d="M-0.371094 6.49186L-0.23027 6.36816L21.4841 31.0872L21.3431 31.2109L-0.371094 6.49186Z" fill="#875FEB"/>
<path fill-rule="evenodd" clip-rule="evenodd" d="M-0.277344 6.40885L-0.13652 6.28516L21.5778 31.0042L21.4368 31.1279L-0.277344 6.40885Z" fill="#8760EA"/>
<path fill-rule="evenodd" clip-rule="evenodd" d="M-0.183594 6.32682L-0.0426055 6.20312L21.6716 30.9222L21.5307 31.0459L-0.183594 6.32682Z" fill="#8661EA"/>
<path fill-rule="evenodd" clip-rule="evenodd" d="M-0.0898438 6.24381L0.0509798 6.12012L21.7653 30.8392L21.6243 30.9629L-0.0898438 6.24381Z" fill="#8561EA"/>
<path fill-rule="evenodd" clip-rule="evenodd" d="M0.00390625 6.16178L0.14473 6.03809L21.8591 30.7571L21.7181 30.8808L0.00390625 6.16178Z" fill="#8562E9"/>
<path fill-rule="evenodd" clip-rule="evenodd" d="M0.0976562 6.07877L0.238645 5.95508L21.9528 30.6741L21.812 30.7978L0.0976562 6.07877Z" fill="#8462E9"/>
<path fill-rule="evenodd" clip-rule="evenodd" d="M0.191406 5.99674L0.33223 5.87305L22.0466 30.5921L21.9056 30.7158L0.191406 5.99674Z" fill="#8363E8"/>
<path fill-rule="evenodd" clip-rule="evenodd" d="M0.285156 5.91373L0.42598 5.79004L22.1403 30.5091L21.9993 30.6328L0.285156 5.91373Z" fill="#8264E8"/>
<path fill-rule="evenodd" clip-rule="evenodd" d="M0.378906 5.8317L0.519895 5.70801L22.2341 30.4271L22.0932 30.5508L0.378906 5.8317Z" fill="#8264E8"/>
<path fill-rule="evenodd" clip-rule="evenodd" d="M0.474609 5.74869L0.615433 5.625L22.3296 30.3441L22.1888 30.4678L0.474609 5.74869Z" fill="#8165E7"/>
<path fill-rule="evenodd" clip-rule="evenodd" d="M0.568359 5.66666L0.709183 5.54297L22.4235 30.262L22.2825 30.3857L0.568359 5.66666Z" fill="#8065E7"/>
<path fill-rule="evenodd" clip-rule="evenodd" d="M0.662109 5.58366L0.803098 5.45996L22.5173 30.179L22.3764 30.3027L0.662109 5.58366Z" fill="#7F66E6"/>
<path fill-rule="evenodd" clip-rule="evenodd" d="M0.755859 5.50162L0.896848 5.37793L22.611 30.097L22.4702 30.2207L0.755859 5.50162Z" fill="#7E66E6"/>
<path fill-rule="evenodd" clip-rule="evenodd" d="M0.849609 5.41862L0.990433 5.29492L22.7048 30.014L22.5638 30.1377L0.849609 5.41862Z" fill="#7E67E6"/>
<path fill-rule="evenodd" clip-rule="evenodd" d="M0.943359 5.33658L1.08435 5.21289L22.7985 29.9319L22.6577 30.0556L0.943359 5.33658Z" fill="#7D68E5"/>
<path fill-rule="evenodd" clip-rule="evenodd" d="M1.03711 5.25358L1.1781 5.12988L22.8923 29.8489L22.7514 29.9726L1.03711 5.25358Z" fill="#7C68E5"/>
<path fill-rule="evenodd" clip-rule="evenodd" d="M1.13086 5.17155L1.27168 5.04785L22.986 29.7669L22.845 29.8906L1.13086 5.17155Z" fill="#7B69E4"/>
<path fill-rule="evenodd" clip-rule="evenodd" d="M1.22461 5.08854L1.36543 4.96484L23.0798 29.6839L22.9388 29.8076L1.22461 5.08854Z" fill="#7B69E4"/>
<path fill-rule="evenodd" clip-rule="evenodd" d="M1.31836 5.00651L1.45935 4.88281L23.1735 29.6019L23.0327 29.7256L1.31836 5.00651Z" fill="#7A6AE4"/>
<path fill-rule="evenodd" clip-rule="evenodd" d="M1.41211 4.9235L1.55293 4.7998L23.2673 29.5189L23.1263 29.6426L1.41211 4.9235Z" fill="#796BE3"/>
<path fill-rule="evenodd" clip-rule="evenodd" d="M1.50781 4.84147L1.64864 4.71777L23.363 29.4368L23.222 29.5605L1.50781 4.84147Z" fill="#786BE3"/>
<path fill-rule="evenodd" clip-rule="evenodd" d="M1.60156 4.75846L1.74255 4.63477L23.4567 29.3538L23.3159 29.4775L1.60156 4.75846Z" fill="#786CE3"/>
<path fill-rule="evenodd" clip-rule="evenodd" d="M1.69531 4.67643L1.83614 4.55273L23.5503 29.2718L23.4095 29.3955L1.69531 4.67643Z" fill="#776CE2"/>
<path fill-rule="evenodd" clip-rule="evenodd" d="M1.78906 4.59342L1.92989 4.46973L23.6442 29.1888L23.5032 29.3125L1.78906 4.59342Z" fill="#766DE2"/>
<path fill-rule="evenodd" clip-rule="evenodd" d="M1.88281 4.51139L2.0238 4.3877L23.738 29.1068L23.5971 29.2304L1.88281 4.51139Z" fill="#756DE1"/>
<path fill-rule="evenodd" clip-rule="evenodd" d="M1.97656 4.42838L2.11755 4.30469L23.8317 29.0237L23.6909 29.1474L1.97656 4.42838Z" fill="#756EE1"/>
<path fill-rule="evenodd" clip-rule="evenodd" d="M2.07031 4.34635L2.21114 4.22266L23.9255 28.9417L23.7845 29.0654L2.07031 4.34635Z" fill="#746FE1"/>
<path fill-rule="evenodd" clip-rule="evenodd" d="M2.16406 4.26334L2.30505 4.13965L24.0192 28.8587L23.8784 28.9824L2.16406 4.26334Z" fill="#736FE0"/>
<path fill-rule="evenodd" clip-rule="evenodd" d="M2.25781 4.18131L2.3988 4.05762L24.113 28.7767L23.9722 28.9004L2.25781 4.18131Z" fill="#7270E0"/>
<path fill-rule="evenodd" clip-rule="evenodd" d="M2.35156 4.0983L2.49239 3.97461L24.2067 28.6937L24.0657 28.8174L2.35156 4.0983Z" fill="#7170DF"/>
<path fill-rule="evenodd" clip-rule="evenodd" d="M2.44531 4.01627L2.5863 3.89258L24.3005 28.6116L24.1597 28.7355L2.44531 4.01627Z" fill="#7171DF"/>
<path fill-rule="evenodd" clip-rule="evenodd" d="M2.54102 3.93326L2.682 3.80957L24.3962 28.5286L24.2554 28.6525L2.54102 3.93326Z" fill="#7072DF"/>
<path fill-rule="evenodd" clip-rule="evenodd" d="M2.63477 3.85123L2.77559 3.72754L24.4899 28.4466L24.3489 28.5705L2.63477 3.85123Z" fill="#6F72DE"/>
<path fill-rule="evenodd" clip-rule="evenodd" d="M2.72852 3.76823L2.86934 3.64453L24.5837 28.3636L24.4427 28.4875L2.72852 3.76823Z" fill="#6E73DE"/>
<path fill-rule="evenodd" clip-rule="evenodd" d="M2.82227 3.68636L2.96325 3.5625L24.6774 28.2816L24.5366 28.4054L2.82227 3.68636Z" fill="#6E74DD"/>
<path fill-rule="evenodd" clip-rule="evenodd" d="M2.91602 3.60335L3.05684 3.47949L24.7712 28.1986L24.6302 28.3224L2.91602 3.60335Z" fill="#6D74DD"/>
<path fill-rule="evenodd" clip-rule="evenodd" d="M3.00977 3.52132L3.15059 3.39746L24.8649 28.1165L24.7239 28.2404L3.00977 3.52132Z" fill="#6C75DD"/>
<path fill-rule="evenodd" clip-rule="evenodd" d="M3.10352 3.43831L3.2445 3.31445L24.9587 28.0335L24.8179 28.1574L3.10352 3.43831Z" fill="#6B75DC"/>
<path fill-rule="evenodd" clip-rule="evenodd" d="M3.19727 3.35628L3.33809 3.23242L25.0523 27.9515L24.9114 28.0753L3.19727 3.35628Z" fill="#6A76DC"/>
<path fill-rule="evenodd" clip-rule="evenodd" d="M3.29102 3.27327L3.43184 3.14941L25.1462 27.8685L25.0052 27.9923L3.29102 3.27327Z" fill="#6A77DB"/>
<path fill-rule="evenodd" clip-rule="evenodd" d="M3.38477 3.19124L3.52575 3.06738L25.2399 27.7864L25.0991 27.9103L3.38477 3.19124Z" fill="#6977DB"/>
<path fill-rule="evenodd" clip-rule="evenodd" d="M3.47852 3.10823L3.6195 2.98438L25.3337 27.7034L25.1929 27.8273L3.47852 3.10823Z" fill="#6878DA"/>
<path fill-rule="evenodd" clip-rule="evenodd" d="M3.57422 3.0262L3.71504 2.90234L25.4294 27.6214L25.2884 27.7453L3.57422 3.0262Z" fill="#6778DA"/>
<path fill-rule="evenodd" clip-rule="evenodd" d="M3.66797 2.94319L3.80896 2.81934L25.5231 27.5384L25.3823 27.6623L3.66797 2.94319Z" fill="#6679DA"/>
<path fill-rule="evenodd" clip-rule="evenodd" d="M3.76172 2.86116L3.90271 2.7373L25.6169 27.4564L25.4761 27.5802L3.76172 2.86116Z" fill="#667AD9"/>
<path fill-rule="evenodd" clip-rule="evenodd" d="M3.85547 2.77816L3.99629 2.6543L25.7106 27.3734L25.5696 27.4972L3.85547 2.77816Z" fill="#657AD9"/>
<path fill-rule="evenodd" clip-rule="evenodd" d="M3.94922 2.69612L4.09021 2.57227L25.8044 27.2913L25.6636 27.4152L3.94922 2.69612Z" fill="#647BD8"/>
<path fill-rule="evenodd" clip-rule="evenodd" d="M4.04297 2.61312L4.18396 2.48926L25.8981 27.2083L25.7573 27.3322L4.04297 2.61312Z" fill="#637BD8"/>
<path fill-rule="evenodd" clip-rule="evenodd" d="M4.13672 2.53109L4.27754 2.40723L25.9919 27.1263L25.8509 27.2501L4.13672 2.53109Z" fill="#627CD8"/>
<path fill-rule="evenodd" clip-rule="evenodd" d="M4.23047 2.44808L4.37129 2.32422L26.0856 27.0433L25.9446 27.1671L4.23047 2.44808Z" fill="#627DD7"/>
<path fill-rule="evenodd" clip-rule="evenodd" d="M4.32422 2.36605L4.46521 2.24219L26.1794 26.9612L26.0386 27.0851L4.32422 2.36605Z" fill="#617DD7"/>
<path fill-rule="evenodd" clip-rule="evenodd" d="M4.41992 2.28304L4.56075 2.15918L26.2751 26.8782L26.1341 27.0021L4.41992 2.28304Z" fill="#607ED6"/>
<path fill-rule="evenodd" clip-rule="evenodd" d="M4.51367 2.20101L4.6545 2.07715L26.3688 26.7962L26.2278 26.9201L4.51367 2.20101Z" fill="#5F7FD6"/>
<path fill-rule="evenodd" clip-rule="evenodd" d="M4.60742 2.118L4.74841 1.99414L26.4626 26.7132L26.3218 26.8371L4.60742 2.118Z" fill="#5E7FD6"/>
<path fill-rule="evenodd" clip-rule="evenodd" d="M4.70117 2.03597L4.842 1.91211L26.5562 26.6312L26.4153 26.755L4.70117 2.03597Z" fill="#5D80D5"/>
<path fill-rule="evenodd" clip-rule="evenodd" d="M4.79492 1.95296L4.93575 1.8291L26.6501 26.5482L26.5091 26.672L4.79492 1.95296Z" fill="#5D81D5"/>
<path fill-rule="evenodd" clip-rule="evenodd" d="M4.88867 1.87093L5.02966 1.74707L26.7438 26.4661L26.603 26.59L4.88867 1.87093Z" fill="#5C81D4"/>
<path fill-rule="evenodd" clip-rule="evenodd" d="M4.98242 1.78792L5.12341 1.66406L26.8376 26.3831L26.6968 26.507L4.98242 1.78792Z" fill="#5B82D4"/>
<path fill-rule="evenodd" clip-rule="evenodd" d="M5.07617 1.70589L5.217 1.58203L26.9313 26.3011L26.7903 26.425L5.07617 1.70589Z" fill="#5A82D3"/>
<path fill-rule="evenodd" clip-rule="evenodd" d="M5.16992 1.62288L5.31091 1.49902L27.0251 26.2181L26.8843 26.3419L5.16992 1.62288Z" fill="#5983D3"/>
<path fill-rule="evenodd" clip-rule="evenodd" d="M5.26367 1.54085L5.40466 1.41699L27.1188 26.1361L26.978 26.2599L5.26367 1.54085Z" fill="#5984D3"/>
<path fill-rule="evenodd" clip-rule="evenodd" d="M5.35742 1.45784L5.49825 1.33398L27.2126 26.053L27.0716 26.1769L5.35742 1.45784Z" fill="#5884D2"/>
<path fill-rule="evenodd" clip-rule="evenodd" d="M5.45312 1.37581L5.59395 1.25195L27.3083 25.9712L27.1673 26.0949L5.45312 1.37581Z" fill="#5785D2"/>
<path fill-rule="evenodd" clip-rule="evenodd" d="M5.54688 1.2928L5.68786 1.16895L27.402 25.8882L27.2612 26.0119L5.54688 1.2928Z" fill="#5686D1"/>
<path fill-rule="evenodd" clip-rule="evenodd" d="M5.64062 1.21077L5.78145 1.08691L27.4958 25.8061L27.3548 25.9298L5.64062 1.21077Z" fill="#5586D1"/>
<path fill-rule="evenodd" clip-rule="evenodd" d="M5.73438 1.1276L5.8752 1.00391L27.5895 25.723L27.4485 25.8467L5.73438 1.1276Z" fill="#5487D0"/>
<path fill-rule="evenodd" clip-rule="evenodd" d="M5.82812 1.04557L5.96911 0.921875L27.6833 25.6409L27.5425 25.7646L5.82812 1.04557Z" fill="#5487D0"/>
<path fill-rule="evenodd" clip-rule="evenodd" d="M5.92188 0.962561L6.0627 0.838867L27.777 25.5579L27.636 25.6816L5.92188 0.962561Z" fill="#5388D0"/>
<path fill-rule="evenodd" clip-rule="evenodd" d="M6.01562 0.88053L6.15645 0.756836L27.8708 25.4759L27.7298 25.5996L6.01562 0.88053Z" fill="#5289CF"/>
<path fill-rule="evenodd" clip-rule="evenodd" d="M6.10938 0.797522L6.25036 0.673828L27.9645 25.3929L27.8237 25.5166L6.10938 0.797522Z" fill="#5189CF"/>
<path fill-rule="evenodd" clip-rule="evenodd" d="M6.20312 0.715491L6.34395 0.591797L28.0581 25.3109L27.9173 25.4345L6.20312 0.715491Z" fill="#508ACE"/>
<path fill-rule="evenodd" clip-rule="evenodd" d="M6.29688 0.632483L6.4377 0.508789L28.152 25.2278L28.011 25.3515L6.29688 0.632483Z" fill="#508BCE"/>
<path fill-rule="evenodd" clip-rule="evenodd" d="M6.39062 0.550452L6.53161 0.426758L28.2458 25.1458L28.105 25.2695L6.39062 0.550452Z" fill="#4F8BCE"/>
<path fill-rule="evenodd" clip-rule="evenodd" d="M6.48633 0.467444L6.62732 0.34375L28.3415 25.0628L28.2007 25.1865L6.48633 0.467444Z" fill="#4E8CCD"/>
<path fill-rule="evenodd" clip-rule="evenodd" d="M6.58008 0.385413L6.7209 0.261719L28.4352 24.9808L28.2943 25.1045L6.58008 0.385413Z" fill="#4D8CCD"/>
<path fill-rule="evenodd" clip-rule="evenodd" d="M6.67383 0.302405L6.81482 0.178711L28.529 24.8978L28.3882 25.0215L6.67383 0.302405Z" fill="#4C8DCC"/>
<path fill-rule="evenodd" clip-rule="evenodd" d="M6.76758 0.220374L6.90857 0.0966797L28.6227 24.8157L28.4819 24.9394L6.76758 0.220374Z" fill="#4C8ECC"/>
<path fill-rule="evenodd" clip-rule="evenodd" d="M6.86133 0.137366L7.00215 0.0136719L28.7165 24.7327L28.5755 24.8564L6.86133 0.137366Z" fill="#4B8ECC"/>
<path fill-rule="evenodd" clip-rule="evenodd" d="M6.95508 0.0553347L7.0959 -0.0683594L28.8102 24.6507L28.6693 24.7744L6.95508 0.0553347Z" fill="#4A8FCB"/>
<path fill-rule="evenodd" clip-rule="evenodd" d="M7.04883 -0.0276731L7.18982 -0.151367L28.904 24.5677L28.7632 24.6914L7.04883 -0.0276731Z" fill="#498FCB"/>
<path fill-rule="evenodd" clip-rule="evenodd" d="M7.14258 -0.109704L7.2834 -0.233398L28.9977 24.4857L28.8567 24.6094L7.14258 -0.109704Z" fill="#4990CA"/>
<path fill-rule="evenodd" clip-rule="evenodd" d="M7.23633 -0.192712L7.37715 -0.316406L29.0915 24.4027L28.9505 24.5263L7.23633 -0.192712Z" fill="#4891CA"/>
<path fill-rule="evenodd" clip-rule="evenodd" d="M7.33008 -0.274743L7.47107 -0.398438L29.1852 24.3206L29.0444 24.4443L7.33008 -0.274743Z" fill="#4791CA"/>
<path fill-rule="evenodd" clip-rule="evenodd" d="M7.42578 -0.357751L7.5666 -0.481445L29.2809 24.2376L29.14 24.3613L7.42578 -0.357751Z" fill="#4692C9"/>
<path fill-rule="evenodd" clip-rule="evenodd" d="M7.51953 -0.439782L7.66035 -0.563477L29.3747 24.1556L29.2337 24.2793L7.51953 -0.439782Z" fill="#4692C9"/>
<path fill-rule="evenodd" clip-rule="evenodd" d="M7.61328 -0.52279L7.75427 -0.646484L29.4684 24.0726L29.3276 24.1963L7.61328 -0.52279Z" fill="#4593C8"/>
<path fill-rule="evenodd" clip-rule="evenodd" d="M7.70703 -0.604822L7.84785 -0.728516L29.562 23.9905L29.4212 24.1142L7.70703 -0.604822Z" fill="#4493C8"/>
<path fill-rule="evenodd" clip-rule="evenodd" d="M7.80078 -0.687829L7.94161 -0.811523L29.6559 23.9075L29.515 24.0312L7.80078 -0.687829Z" fill="#4394C8"/>
<path fill-rule="evenodd" clip-rule="evenodd" d="M7.89453 -0.769861L8.03552 -0.893555L29.7497 23.8255L29.6089 23.9492L7.89453 -0.769861Z" fill="#4395C7"/>
<path fill-rule="evenodd" clip-rule="evenodd" d="M7.98828 -0.852868L8.12927 -0.976562L29.8434 23.7425L29.7026 23.8662L7.98828 -0.852868Z" fill="#4295C7"/>
<path fill-rule="evenodd" clip-rule="evenodd" d="M8.08203 -0.9349L8.22285 -1.05859L29.9372 23.6605L29.7962 23.7842L8.08203 -0.9349Z" fill="#4196C7"/>
<path fill-rule="evenodd" clip-rule="evenodd" d="M8.17578 -1.01791L8.31677 -1.1416L30.0309 23.5775L29.8901 23.7012L8.17578 -1.01791Z" fill="#4096C6"/>
<path fill-rule="evenodd" clip-rule="evenodd" d="M8.26953 -1.09994L8.41052 -1.22363L30.1247 23.4954L29.9839 23.6191L8.26953 -1.09994Z" fill="#4097C6"/>
<path fill-rule="evenodd" clip-rule="evenodd" d="M8.36328 -1.18295L8.5041 -1.30664L30.2184 23.4124L30.0775 23.5361L8.36328 -1.18295Z" fill="#3F97C5"/>
<path fill-rule="evenodd" clip-rule="evenodd" d="M8.45898 -1.26498L8.59981 -1.38867L30.3141 23.3304L30.1732 23.4541L8.45898 -1.26498Z" fill="#3E98C5"/>
<path fill-rule="evenodd" clip-rule="evenodd" d="M8.55273 -1.34799L8.69372 -1.47168L30.4079 23.2474L30.2671 23.3711L8.55273 -1.34799Z" fill="#3E99C5"/>
<path fill-rule="evenodd" clip-rule="evenodd" d="M8.64648 -1.43002L8.78731 -1.55371L30.5016 23.1653L30.3607 23.289L8.64648 -1.43002Z" fill="#3D99C4"/>
<path fill-rule="evenodd" clip-rule="evenodd" d="M8.74023 -1.51302L8.88106 -1.63672L30.5954 23.0823L30.4544 23.2062L8.74023 -1.51302Z" fill="#3C9AC4"/>
<path fill-rule="evenodd" clip-rule="evenodd" d="M8.83398 -1.59506L8.97497 -1.71875L30.6891 23.0003L30.5483 23.1242L8.83398 -1.59506Z" fill="#3B9AC4"/>
<path fill-rule="evenodd" clip-rule="evenodd" d="M8.92773 -1.67806L9.06856 -1.80176L30.7827 22.9173L30.6419 23.0412L8.92773 -1.67806Z" fill="#3B9BC3"/>
<path fill-rule="evenodd" clip-rule="evenodd" d="M9.02148 -1.75993L9.16231 -1.88379L30.8766 22.8353L30.7357 22.9591L9.02148 -1.75993Z" fill="#3A9BC3"/>
<path fill-rule="evenodd" clip-rule="evenodd" d="M9.11523 -1.84294L9.25622 -1.9668L30.9704 22.7523L30.8296 22.8761L9.11523 -1.84294Z" fill="#399CC2"/>
<path fill-rule="evenodd" clip-rule="evenodd" d="M9.20898 -1.92497L9.34997 -2.04883L31.0641 22.6702L30.9233 22.7941L9.20898 -1.92497Z" fill="#399CC2"/>
<path fill-rule="evenodd" clip-rule="evenodd" d="M9.30273 -2.00798L9.44356 -2.13184L31.1579 22.5872L31.0169 22.7111L9.30273 -2.00798Z" fill="#389DC2"/>
<path fill-rule="evenodd" clip-rule="evenodd" d="M9.39648 -2.09001L9.53747 -2.21387L31.2516 22.5052L31.1108 22.6291L9.39648 -2.09001Z" fill="#379DC1"/>
<path fill-rule="evenodd" clip-rule="evenodd" d="M9.49219 -2.17302L9.63318 -2.29688L31.3473 22.4222L31.2065 22.546L9.49219 -2.17302Z" fill="#379EC1"/>
<path fill-rule="evenodd" clip-rule="evenodd" d="M9.58594 -2.25505L9.72676 -2.37891L31.4411 22.3402L31.3001 22.464L9.58594 -2.25505Z" fill="#369EC1"/>
<path fill-rule="evenodd" clip-rule="evenodd" d="M9.67969 -2.33806L9.82068 -2.46191L31.5348 22.2571L31.394 22.381L9.67969 -2.33806Z" fill="#359FC0"/>
<path fill-rule="evenodd" clip-rule="evenodd" d="M9.77344 -2.42009L9.91443 -2.54395L31.6286 22.1751L31.4878 22.299L9.77344 -2.42009Z" fill="#34A0C0"/>
<path fill-rule="evenodd" clip-rule="evenodd" d="M9.86719 -2.50309L10.008 -2.62695L31.7223 22.0921L31.5814 22.216L9.86719 -2.50309Z" fill="#34A0C0"/>
<path fill-rule="evenodd" clip-rule="evenodd" d="M9.96094 -2.58513L10.1018 -2.70898L31.8161 22.0101L31.6751 22.1339L9.96094 -2.58513Z" fill="#33A1BF"/>
<path fill-rule="evenodd" clip-rule="evenodd" d="M10.0547 -2.66813L10.1957 -2.79199L31.9098 21.9271L31.769 22.0509L10.0547 -2.66813Z" fill="#32A1BF"/>
<path fill-rule="evenodd" clip-rule="evenodd" d="M10.1484 -2.75016L10.2893 -2.87402L32.0036 21.845L31.8626 21.9689L10.1484 -2.75016Z" fill="#32A2BF"/>
<path fill-rule="evenodd" clip-rule="evenodd" d="M10.2422 -2.83317L10.383 -2.95703L32.0973 21.762L31.9564 21.8859L10.2422 -2.83317Z" fill="#31A2BE"/>
<path fill-rule="evenodd" clip-rule="evenodd" d="M10.3359 -2.9152L10.4769 -3.03906L32.1911 21.68L32.0503 21.8039L10.3359 -2.9152Z" fill="#30A3BE"/>
<path fill-rule="evenodd" clip-rule="evenodd" d="M10.4316 -2.99821L10.5725 -3.12207L32.2866 21.597L32.1458 21.7208L10.4316 -2.99821Z" fill="#30A3BE"/>
<path fill-rule="evenodd" clip-rule="evenodd" d="M10.5254 -3.08024L10.6662 -3.2041L32.3806 21.515L32.2396 21.6388L10.5254 -3.08024Z" fill="#2FA4BD"/>
<path fill-rule="evenodd" clip-rule="evenodd" d="M10.6191 -3.16325L10.7601 -3.28711L32.4743 21.432L32.3335 21.5558L10.6191 -3.16325Z" fill="#2EA4BD"/>
<path fill-rule="evenodd" clip-rule="evenodd" d="M10.7129 -3.24528L10.8539 -3.36914L32.5681 21.3499L32.4272 21.4738L10.7129 -3.24528Z" fill="#2EA5BD"/>
<path fill-rule="evenodd" clip-rule="evenodd" d="M10.8066 -3.32829L10.9475 -3.45215L32.6618 21.2669L32.5208 21.3908L10.8066 -3.32829Z" fill="#2DA5BC"/>
<path fill-rule="evenodd" clip-rule="evenodd" d="M10.9004 -3.41032L11.0414 -3.53418L32.7555 21.1849L32.6147 21.3087L10.9004 -3.41032Z" fill="#2CA6BC"/>
<path fill-rule="evenodd" clip-rule="evenodd" d="M10.9941 -3.49333L11.1351 -3.61719L32.8493 21.1019L32.7085 21.2257L10.9941 -3.49333Z" fill="#2CA6BC"/>
<path fill-rule="evenodd" clip-rule="evenodd" d="M11.0879 -3.57536L11.2287 -3.69922L32.943 21.0198L32.8021 21.1437L11.0879 -3.57536Z" fill="#2BA7BB"/>
<path fill-rule="evenodd" clip-rule="evenodd" d="M11.1816 -3.65837L11.3225 -3.78223L33.0368 20.9368L32.8958 21.0607L11.1816 -3.65837Z" fill="#2BA7BB"/>
<path fill-rule="evenodd" clip-rule="evenodd" d="M11.2754 -3.7404L11.4164 -3.86426L33.1306 20.8548L32.9897 20.9787L11.2754 -3.7404Z" fill="#2AA8BB"/>
<path fill-rule="evenodd" clip-rule="evenodd" d="M11.3691 -3.82341L11.51 -3.94727L33.2243 20.7718L33.0833 20.8957L11.3691 -3.82341Z" fill="#29A8BA"/>
<path fill-rule="evenodd" clip-rule="evenodd" d="M11.4648 -3.90544L11.6057 -4.0293L33.32 20.6898L33.179 20.8136L11.4648 -3.90544Z" fill="#29A9BA"/>
<path fill-rule="evenodd" clip-rule="evenodd" d="M11.5586 -3.98845L11.6996 -4.1123L33.4138 20.6068L33.2729 20.7306L11.5586 -3.98845Z" fill="#28A9BA"/>
<path fill-rule="evenodd" clip-rule="evenodd" d="M11.6523 -4.07048L11.7932 -4.19434L33.5075 20.5247L33.3665 20.6486L11.6523 -4.07048Z" fill="#27AAB9"/>
<path fill-rule="evenodd" clip-rule="evenodd" d="M11.7461 -4.15348L11.8869 -4.27734L33.6013 20.4419L33.4603 20.5656L11.7461 -4.15348Z" fill="#27AAB9"/>
<path fill-rule="evenodd" clip-rule="evenodd" d="M11.8398 -4.23552L11.9808 -4.35938L33.695 20.3598L33.5542 20.4835L11.8398 -4.23552Z" fill="#26ABB9"/>
<path fill-rule="evenodd" clip-rule="evenodd" d="M11.9336 -4.31852L12.0744 -4.44238L33.7886 20.2768L33.6478 20.4005L11.9336 -4.31852Z" fill="#25ABB8"/>
<path fill-rule="evenodd" clip-rule="evenodd" d="M12.0273 -4.40072L12.1682 -4.52441L33.8825 20.1946L33.7415 20.3183L12.0273 -4.40072Z" fill="#25ACB8"/>
<path fill-rule="evenodd" clip-rule="evenodd" d="M12.1211 -4.48275L12.2621 -4.60645L33.9763 20.1126L33.8354 20.2363L12.1211 -4.48275Z" fill="#24ACB8"/>
<path fill-rule="evenodd" clip-rule="evenodd" d="M12.2148 -4.56576L12.3558 -4.68945L34.07 20.0296L33.9292 20.1533L12.2148 -4.56576Z" fill="#24ADB7"/>
<path fill-rule="evenodd" clip-rule="evenodd" d="M12.3086 -4.64779L12.4494 -4.77148L34.1638 19.9476L34.0228 20.0713L12.3086 -4.64779Z" fill="#23ADB7"/>
<path fill-rule="evenodd" clip-rule="evenodd" d="M12.4023 -4.7308L12.5433 -4.85449L34.2575 19.8646L34.1167 19.9883L12.4023 -4.7308Z" fill="#22ADB7"/>
<path fill-rule="evenodd" clip-rule="evenodd" d="M12.498 -4.81283L12.639 -4.93652L34.3532 19.7825L34.2124 19.9062L12.498 -4.81283Z" fill="#22AEB6"/>
<path fill-rule="evenodd" clip-rule="evenodd" d="M12.5918 -4.89584L12.7326 -5.01953L34.447 19.6995L34.306 19.8232L12.5918 -4.89584Z" fill="#21AEB6"/>
<path fill-rule="evenodd" clip-rule="evenodd" d="M12.6855 -4.97787L12.8264 -5.10156L34.5407 19.6175L34.3997 19.7412L12.6855 -4.97787Z" fill="#21AFB6"/>
<path fill-rule="evenodd" clip-rule="evenodd" d="M12.7793 -5.06088L12.9203 -5.18457L34.6345 19.5345L34.4936 19.6582L12.7793 -5.06088Z" fill="#20AFB5"/>
<path fill-rule="evenodd" clip-rule="evenodd" d="M12.873 -5.14291L13.0139 -5.2666L34.7282 19.4525L34.5872 19.5762L12.873 -5.14291Z" fill="#1FB0B5"/>
<path fill-rule="evenodd" clip-rule="evenodd" d="M12.9668 -5.22592L13.1076 -5.34961L34.822 19.3694L34.681 19.4931L12.9668 -5.22592Z" fill="#1FB0B5"/>
<path fill-rule="evenodd" clip-rule="evenodd" d="M13.0605 -5.30795L13.2015 -5.43164L34.9157 19.2874L34.7749 19.4111L13.0605 -5.30795Z" fill="#1EB1B5"/>
<path fill-rule="evenodd" clip-rule="evenodd" d="M13.1543 -5.39095L13.2951 -5.51465L35.0095 19.2044L34.8685 19.3281L13.1543 -5.39095Z" fill="#1EB1B4"/>
<path fill-rule="evenodd" clip-rule="evenodd" d="M13.248 -5.47299L13.3889 -5.59668L35.1032 19.1224L34.9622 19.2461L13.248 -5.47299Z" fill="#1DB2B4"/>
<path fill-rule="evenodd" clip-rule="evenodd" d="M13.3418 -5.55599L13.4828 -5.67969L35.197 19.0394L35.0561 19.1631L13.3418 -5.55599Z" fill="#1CB2B4"/>
<path fill-rule="evenodd" clip-rule="evenodd" d="M13.4375 -5.63802L13.5783 -5.76172L35.2925 18.9573L35.1517 19.081L13.4375 -5.63802Z" fill="#1CB3B3"/>
<path fill-rule="evenodd" clip-rule="evenodd" d="M13.5312 -5.72103L13.6721 -5.84473L35.3864 18.8743L35.2454 18.998L13.5312 -5.72103Z" fill="#1BB3B3"/>
<path fill-rule="evenodd" clip-rule="evenodd" d="M13.625 -5.80306L13.766 -5.92676L35.4802 18.7923L35.3393 18.916L13.625 -5.80306Z" fill="#1BB3B3"/>
<path fill-rule="evenodd" clip-rule="evenodd" d="M13.7188 -5.88607L13.8597 -6.00977L35.5739 18.7093L35.4331 18.833L13.7188 -5.88607Z" fill="#1AB4B2"/>
<path fill-rule="evenodd" clip-rule="evenodd" d="M13.8125 -5.9681L13.9533 -6.0918L35.6677 18.6273L35.5267 18.751L13.8125 -5.9681Z" fill="#19B4B2"/>
<path fill-rule="evenodd" clip-rule="evenodd" d="M13.9062 -6.05111L14.0472 -6.1748L35.7614 18.5443L35.6206 18.6679L13.9062 -6.05111Z" fill="#19B5B2"/>
<path fill-rule="evenodd" clip-rule="evenodd" d="M14 -6.13314L14.141 -6.25684L35.8552 18.4622L35.7143 18.5859L14 -6.13314Z" fill="#18B5B2"/>
<path fill-rule="evenodd" clip-rule="evenodd" d="M14.0938 -6.21615L14.2346 -6.33984L35.9489 18.3792L35.8079 18.5029L14.0938 -6.21615Z" fill="#18B6B1"/>
<path fill-rule="evenodd" clip-rule="evenodd" d="M14.1875 -6.29818L14.3283 -6.42188L36.0427 18.2972L35.9017 18.4209L14.1875 -6.29818Z" fill="#17B6B1"/>
<path fill-rule="evenodd" clip-rule="evenodd" d="M14.2812 -6.38119L14.4222 -6.50488L36.1364 18.2142L35.9956 18.3379L14.2812 -6.38119Z" fill="#17B7B1"/>
<path fill-rule="evenodd" clip-rule="evenodd" d="M14.375 -6.46322L14.5158 -6.58691L36.2302 18.1321L36.0892 18.2558L14.375 -6.46322Z" fill="#16B7B0"/>
<path fill-rule="evenodd" clip-rule="evenodd" d="M14.4707 -6.54623L14.6115 -6.66992L36.3259 18.0491L36.1849 18.1728L14.4707 -6.54623Z" fill="#15B7B0"/>
<path fill-rule="evenodd" clip-rule="evenodd" d="M14.5645 -6.62826L14.7054 -6.75195L36.4196 17.9671L36.2788 18.0908L14.5645 -6.62826Z" fill="#15B8B0"/>
<path fill-rule="evenodd" clip-rule="evenodd" d="M14.6582 -6.71127L14.799 -6.83496L36.5132 17.8841L36.3724 18.0078L14.6582 -6.71127Z" fill="#14B8AF"/>
<path fill-rule="evenodd" clip-rule="evenodd" d="M14.752 -6.7933L14.8928 -6.91699L36.6071 17.8021L36.4661 17.9258L14.752 -6.7933Z" fill="#14B9AF"/>
<path fill-rule="evenodd" clip-rule="evenodd" d="M14.8457 -6.87631L14.9867 -7L36.7009 17.7191L36.56 17.8428L14.8457 -6.87631Z" fill="#13B9AF"/>
<path fill-rule="evenodd" clip-rule="evenodd" d="M14.9395 -6.95834L15.0804 -7.08203L36.7946 17.637L36.6538 17.7607L14.9395 -6.95834Z" fill="#13BAAF"/>
<path fill-rule="evenodd" clip-rule="evenodd" d="M15.0332 -7.04134L15.174 -7.16504L36.8884 17.554L36.7474 17.6779L15.0332 -7.04134Z" fill="#12BAAE"/>
<path fill-rule="evenodd" clip-rule="evenodd" d="M15.127 -7.12338L15.2679 -7.24707L36.9821 17.472L36.8413 17.5958L15.127 -7.12338Z" fill="#12BAAE"/>
<path fill-rule="evenodd" clip-rule="evenodd" d="M15.2207 -7.20638L15.3617 -7.33008L37.0759 17.389L36.935 17.5128L15.2207 -7.20638Z" fill="#11BBAE"/>
<path fill-rule="evenodd" clip-rule="evenodd" d="M15.3145 -7.28825L15.4553 -7.41211L37.1696 17.307L37.0286 17.4308L15.3145 -7.28825Z" fill="#11BBAD"/>
<path fill-rule="evenodd" clip-rule="evenodd" d="M15.4082 -7.37126L15.5492 -7.49512L37.2634 17.2239L37.1225 17.3478L15.4082 -7.37126Z" fill="#10BCAD"/>
<path fill-rule="evenodd" clip-rule="evenodd" d="M15.5039 -7.45329L15.6449 -7.57715L37.3591 17.1419L37.2182 17.2658L15.5039 -7.45329Z" fill="#0FBCAD"/>
<path fill-rule="evenodd" clip-rule="evenodd" d="M15.5977 -7.5363L15.7385 -7.66016L37.4528 17.0589L37.3118 17.1828L15.5977 -7.5363Z" fill="#0FBDAD"/>
<path fill-rule="evenodd" clip-rule="evenodd" d="M15.6914 -7.61833L15.8322 -7.74219L37.5466 16.9769L37.4056 17.1007L15.6914 -7.61833Z" fill="#0EBDAC"/>
<path fill-rule="evenodd" clip-rule="evenodd" d="M15.7852 -7.70134L15.9261 -7.8252L37.6403 16.8939L37.4995 17.0177L15.7852 -7.70134Z" fill="#0EBDAC"/>
<path fill-rule="evenodd" clip-rule="evenodd" d="M15.8789 -7.78337L16.0197 -7.90723L37.7341 16.8118L37.5931 16.9357L15.8789 -7.78337Z" fill="#0DBEAC"/>
<path fill-rule="evenodd" clip-rule="evenodd" d="M15.9727 -7.86638L16.1135 -7.99023L37.8278 16.7288L37.6868 16.8527L15.9727 -7.86638Z" fill="#0DBEAC"/>
<path fill-rule="evenodd" clip-rule="evenodd" d="M16.0664 -7.94841L16.2074 -8.07227L37.9216 16.6468L37.7807 16.7707L16.0664 -7.94841Z" fill="#0CBFAB"/>
<path fill-rule="evenodd" clip-rule="evenodd" d="M16.1602 -8.03141L16.301 -8.15527L38.0152 16.5638L37.8743 16.6876L16.1602 -8.03141Z" fill="#0CBFAB"/>
<path fill-rule="evenodd" clip-rule="evenodd" d="M16.2539 -8.11345L16.3947 -8.2373L38.1091 16.4818L37.9681 16.6056L16.2539 -8.11345Z" fill="#0BBFAB"/>
<path fill-rule="evenodd" clip-rule="evenodd" d="M16.3477 -8.19645L16.4886 -8.32031L38.2028 16.3987L38.062 16.5226L16.3477 -8.19645Z" fill="#0BC0AA"/>
<path fill-rule="evenodd" clip-rule="evenodd" d="M16.4414 -8.27848L16.5824 -8.40234L38.2966 16.3167L38.1557 16.4406L16.4414 -8.27848Z" fill="#0AC0AA"/>
<path fill-rule="evenodd" clip-rule="evenodd" d="M16.5371 -8.36149L16.6779 -8.48535L38.3923 16.2337L38.2513 16.3576L16.5371 -8.36149Z" fill="#0AC1AA"/>
<path fill-rule="evenodd" clip-rule="evenodd" d="M16.6309 -8.44352L16.7718 -8.56738L38.486 16.1517L38.3452 16.2755L16.6309 -8.44352Z" fill="#09C1AA"/>
<path fill-rule="evenodd" clip-rule="evenodd" d="M16.7246 -8.52653L16.8656 -8.65039L38.5798 16.0687L38.4389 16.1925L16.7246 -8.52653Z" fill="#09C1A9"/>
<path fill-rule="evenodd" clip-rule="evenodd" d="M16.8184 -8.60856L16.9592 -8.73242L38.6735 15.9866L38.5325 16.1105L16.8184 -8.60856Z" fill="#08C2A9"/>
<path fill-rule="evenodd" clip-rule="evenodd" d="M16.9121 -8.69157L17.0531 -8.81543L38.7673 15.9036L38.6264 16.0275L16.9121 -8.69157Z" fill="#08C2A9"/>
<path fill-rule="evenodd" clip-rule="evenodd" d="M17.0059 -8.7736L17.1468 -8.89746L38.861 15.8216L38.7202 15.9455L17.0059 -8.7736Z" fill="#07C3A9"/>
<path fill-rule="evenodd" clip-rule="evenodd" d="M17.0996 -8.85661L17.2404 -8.98047L38.9548 15.7386L38.8138 15.8625L17.0996 -8.85661Z" fill="#06C3A8"/>
<path fill-rule="evenodd" clip-rule="evenodd" d="M17.1934 -8.93864L17.3342 -9.0625L39.0485 15.6566L38.9075 15.7804L17.1934 -8.93864Z" fill="#06C3A8"/>
<path fill-rule="evenodd" clip-rule="evenodd" d="M17.2871 -9.02165L17.4281 -9.14551L39.1423 15.5736L39.0014 15.6974L17.2871 -9.02165Z" fill="#05C4A8"/>
<path fill-rule="evenodd" clip-rule="evenodd" d="M17.3809 -9.10368L17.5217 -9.22754L39.236 15.4915L39.095 15.6154L17.3809 -9.10368Z" fill="#05C4A8"/>
<path fill-rule="evenodd" clip-rule="evenodd" d="M17.4766 -9.18669L17.6174 -9.31055L39.3317 15.4085L39.1907 15.5324L17.4766 -9.18669Z" fill="#04C5A7"/>
<path fill-rule="evenodd" clip-rule="evenodd" d="M17.5703 -9.26872L17.7113 -9.39258L39.4255 15.3265L39.2846 15.4503L17.5703 -9.26872Z" fill="#04C5A7"/>
<path fill-rule="evenodd" clip-rule="evenodd" d="M17.6641 -9.35173L17.8049 -9.47559L39.5191 15.2435L39.3782 15.3673L17.6641 -9.35173Z" fill="#03C5A7"/>
<path fill-rule="evenodd" clip-rule="evenodd" d="M17.7578 -9.43376L17.8986 -9.55762L39.613 15.1614L39.472 15.2853L17.7578 -9.43376Z" fill="#03C6A7"/>
<path fill-rule="evenodd" clip-rule="evenodd" d="M17.8516 -9.51677L17.9926 -9.64062L39.7067 15.0784L39.5659 15.2023L17.8516 -9.51677Z" fill="#02C6A6"/>
<path fill-rule="evenodd" clip-rule="evenodd" d="M17.9453 -9.5988L18.0863 -9.72266L39.8005 14.9964L39.6596 15.1203L17.9453 -9.5988Z" fill="#02C6A6"/>
<path fill-rule="evenodd" clip-rule="evenodd" d="M18.0391 -9.68181L18.1799 -9.80566L39.8942 14.9136L39.7532 15.0373L18.0391 -9.68181Z" fill="#01C7A6"/>
<path fill-rule="evenodd" clip-rule="evenodd" d="M18.1328 -9.76384L18.2738 -9.8877L39.988 14.8315L39.8472 14.9552L18.1328 -9.76384Z" fill="#01C7A6"/>
<path fill-rule="evenodd" clip-rule="evenodd" d="M18.2266 -9.84684L18.3675 -9.9707L40.0817 14.7485L39.9409 14.8722L18.2266 -9.84684Z" fill="#00C8A5"/>
<path fill-rule="evenodd" clip-rule="evenodd" d="M18.3203 -9.92914L18.5609 -10.1406L40.2753 14.5784L40.0345 14.7899L18.3203 -9.92914Z" fill="#00C8A5"/>
</g>
</svg>
