<svg width="32" height="32" viewBox="0 0 32 32" fill="none" xmlns="http://www.w3.org/2000/svg">
<rect width="32" height="32" rx="16" fill="#17171A"/>
<path d="M27 16C27 18.775 26.5286 21.025 25.9 21.025C25.2714 21.025 24.8 18.775 24.8 16C24.8 13.225 25.2714 10.975 25.9 10.975C26.5286 10.975 27 13.225 27 16ZM24.25 16C24.25 19.075 22.8357 21.625 21.1857 21.625C19.5357 21.625 18.1214 19.075 18.1214 16C18.1214 12.925 19.5357 10.375 21.1857 10.375C22.8357 10.375 24.25 12.925 24.25 16ZM17.4143 16C17.4143 19.3 14.6643 22 11.2071 22C7.75 22 5 19.3 5 16C5 12.7 7.75 10 11.2071 10C14.6643 10 17.4143 12.7 17.4143 16Z" fill="white"/>
</svg>
