<svg width="42" height="42" viewBox="0 0 42 42" fill="none" xmlns="http://www.w3.org/2000/svg">
<rect width="42" height="42" rx="21" fill="white"/>
<path d="M35.4375 21C35.4375 24.6422 34.8188 27.5953 33.9937 27.5953C33.1688 27.5953 32.55 24.6422 32.55 21C32.55 17.3578 33.1688 14.4047 33.9937 14.4047C34.8188 14.4047 35.4375 17.3578 35.4375 21ZM31.8281 21C31.8281 25.0359 29.9719 28.3828 27.8062 28.3828C25.6406 28.3828 23.7844 25.0359 23.7844 21C23.7844 16.9641 25.6406 13.6172 27.8062 13.6172C29.9719 13.6172 31.8281 16.9641 31.8281 21ZM22.8562 21C22.8562 25.3313 19.2469 28.875 14.7094 28.875C10.1719 28.875 6.5625 25.3313 6.5625 21C6.5625 16.6687 10.1719 13.125 14.7094 13.125C19.2469 13.125 22.8562 16.6687 22.8562 21Z" fill="#8661EA"/>
</svg>
