<svg width="26" height="26" viewBox="0 0 26 26" fill="none" xmlns="http://www.w3.org/2000/svg">
<rect x="3" y="3" width="20" height="20" rx="10" fill="white"/>
<path d="M12.9995 15.7968C14.5444 15.7968 15.7968 14.5444 15.7968 12.9995C15.7968 11.4547 14.5444 10.2023 12.9995 10.2023C11.4547 10.2023 10.2023 11.4547 10.2023 12.9995C10.2023 14.5444 11.4547 15.7968 12.9995 15.7968Z" fill="#21242E"/>
<path d="M12.9995 6.8457V7.96458M12.9995 18.0345V19.1534M8.6471 8.6471L9.44151 9.44151M16.5576 16.5576L17.352 17.352M6.8457 12.9995H7.96458M18.0345 12.9995H19.1534M8.6471 17.352L9.44151 16.5576M16.5576 9.44151L17.352 8.6471M15.7968 12.9995C15.7968 14.5444 14.5444 15.7968 12.9995 15.7968C11.4547 15.7968 10.2023 14.5444 10.2023 12.9995C10.2023 11.4547 11.4547 10.2023 12.9995 10.2023C14.5444 10.2023 15.7968 11.4547 15.7968 12.9995Z" stroke="#21242E" stroke-width="1.25" stroke-linecap="square" stroke-linejoin="round"/>
</svg>
