<svg width="26" height="26" viewBox="0 0 26 26" fill="none" xmlns="http://www.w3.org/2000/svg">
<rect width="26" height="26" rx="13" fill="#232323" fill-opacity="0.75"/>
<rect x="3" y="3" width="20" height="20" rx="10" fill="white"/>
<path d="M16.6702 15.457C16.3149 16.4184 15.6932 17.2587 14.8778 17.8797C14.0624 18.5006 13.087 18.8765 12.0658 18.9633C11.0446 19.0502 10.0197 18.8444 9.11116 18.37C8.20262 17.8956 7.44796 17.1723 6.9355 16.2847C6.42304 15.3971 6.17396 14.3819 6.21742 13.3579C6.26087 12.3339 6.59507 11.3434 7.18089 10.5024C7.76671 9.66143 8.57993 9.00466 9.5254 8.60897C10.4709 8.21328 11.5095 8.09504 12.5197 8.26809C9.5 10 9.47433 12.7235 10.5 14.5C11.7709 16.2847 14.3323 16.2847 16.6702 15.457Z" fill="#21242E"/>
<path d="M17 6L17.8485 9.15147L21 10L17.8485 10.8485L17 14L16.1515 10.8485L13 10L16.1515 9.15147L17 6Z" fill="#21242E"/>
</svg>
