<svg width="42" height="42" viewBox="0 0 42 42" fill="none" xmlns="http://www.w3.org/2000/svg">
<g clip-path="url(#clip0_819_3947)">
<rect width="42" height="42" rx="21" fill="white"/>
<path fill-rule="evenodd" clip-rule="evenodd" d="M29.0529 11.9472C29.3433 11.8279 29.6613 11.7868 29.9736 11.8281C30.2859 11.8694 30.5811 11.9915 30.8286 12.1819C31.0761 12.3722 31.2667 12.6238 31.3807 12.9104C31.4946 13.1971 31.5278 13.5082 31.4766 13.8116L28.8107 29.5857C28.5521 31.1073 26.8407 31.9799 25.4101 31.2219C24.2135 30.5879 22.4363 29.6109 20.8377 28.5916C20.0384 28.0813 17.5899 26.4474 17.8908 25.2847C18.1494 24.2906 22.2635 20.5549 24.6144 18.3339C25.5371 17.4613 25.1163 16.9579 24.0267 17.7606C21.3196 19.7534 16.9763 22.7839 15.5399 23.637C14.2728 24.3892 13.6122 24.5176 12.8223 24.3892C11.3812 24.1553 10.0447 23.793 8.95393 23.3515C7.47992 22.7553 7.55162 20.7785 8.95275 20.2029L29.0529 11.9472Z" fill="#8661EA"/>
</g>
<defs>
<clipPath id="clip0_819_3947">
<rect width="42" height="42" rx="21" fill="white"/>
</clipPath>
</defs>
</svg>
