<svg width="32" height="32" viewBox="0 0 32 32" fill="none" xmlns="http://www.w3.org/2000/svg">
<g clip-path="url(#clip0_708_15169)">
<rect width="32" height="32" rx="16" fill="#17171A"/>
<path fill-rule="evenodd" clip-rule="evenodd" d="M22.1355 9.10262C22.3568 9.01176 22.5991 8.98042 22.837 9.01187C23.0749 9.04331 23.2999 9.1364 23.4884 9.28144C23.677 9.42647 23.8222 9.61815 23.9091 9.83653C23.9959 10.0549 24.0212 10.292 23.9822 10.5231L21.951 22.5415C21.754 23.7008 20.45 24.3656 19.3601 23.7881C18.4484 23.305 17.0943 22.5607 15.8763 21.7841C15.2673 21.3953 13.4018 20.1504 13.6311 19.2645C13.8281 18.5071 16.9627 15.6609 18.7538 13.9687C19.4568 13.3038 19.1362 12.9203 18.306 13.5319C16.2435 15.0502 12.9344 17.3592 11.84 18.0092C10.8745 18.5823 10.3712 18.6801 9.76938 18.5823C8.6714 18.404 7.65313 18.128 6.82204 17.7916C5.69899 17.3373 5.75362 15.8312 6.82114 15.3927L22.1355 9.10262Z" fill="white"/>
</g>
<defs>
<clipPath id="clip0_708_15169">
<rect width="32" height="32" rx="16" fill="white"/>
</clipPath>
</defs>
</svg>
