<svg width="42" height="42" viewBox="0 0 42 42" fill="none" xmlns="http://www.w3.org/2000/svg">
<rect width="42" height="42" rx="21" fill="white"/>
<path d="M16.6087 31.5C25.5242 31.5 30.4013 23.4187 30.4013 16.4228C30.4013 16.1967 30.4013 15.9673 30.3924 15.7411C31.3419 14.9892 32.1614 14.0583 32.8125 12.9919C31.9256 13.4197 30.9856 13.7017 30.0233 13.8286C31.037 13.1658 31.7962 12.1228 32.1599 10.8936C31.2075 11.5109 30.165 11.9442 29.0783 12.1746C28.3476 11.3233 27.3808 10.7594 26.3276 10.5702C25.2743 10.3809 24.1934 10.5769 23.2523 11.1278C22.3111 11.6786 21.5623 12.5536 21.1217 13.6171C20.6812 14.6807 20.5735 15.8735 20.8154 17.0108C18.8881 16.9051 17.0027 16.3573 15.2813 15.4031C13.56 14.4489 12.0412 13.1096 10.8235 11.4719C10.2054 12.6399 10.0167 14.0215 10.2959 15.3361C10.5751 16.6508 11.3011 17.7999 12.3267 18.5502C11.5582 18.5216 10.8066 18.2958 10.1325 17.8911V17.9638C10.1338 19.1874 10.5213 20.3729 11.2294 21.32C11.9375 22.2671 12.9228 22.9177 14.0188 23.1618C13.6028 23.2872 13.1731 23.3497 12.7416 23.3476C12.4374 23.3486 12.1338 23.3178 11.835 23.2555C12.1447 24.3088 12.7479 25.2297 13.56 25.8892C14.372 26.5488 15.3523 26.9139 16.3636 26.9336C14.6457 28.4096 12.5236 29.2102 10.3392 29.2063C9.95431 29.2081 9.56967 29.1838 9.1875 29.1336C11.4046 30.6799 13.9794 31.5009 16.6087 31.5Z" fill="#8661EA"/>
</svg>
