<svg width="32" height="32" viewBox="0 0 32 32" fill="none" xmlns="http://www.w3.org/2000/svg">
<rect width="32" height="32" rx="16" fill="#17171A"/>
<path d="M12.6543 24C19.447 24 23.1629 17.8428 23.1629 12.5126C23.1629 12.3403 23.1629 12.1656 23.1561 11.9933C23.8796 11.4203 24.5039 10.711 25 9.8986C24.3242 10.2246 23.6081 10.4394 22.8749 10.5361C23.6472 10.0311 24.2257 9.23644 24.5028 8.29991C23.7771 8.7702 22.9829 9.10033 22.1549 9.27586C21.5982 8.62731 20.8616 8.19766 20.0591 8.05347C19.2566 7.90929 18.4331 8.0586 17.716 8.47829C16.999 8.89798 16.4284 9.56462 16.0928 10.375C15.7571 11.1853 15.6751 12.0941 15.8594 12.9606C14.391 12.88 12.9544 12.4627 11.6429 11.7357C10.3314 11.0087 9.17427 9.98825 8.2465 8.74051C7.77551 9.63041 7.63177 10.683 7.84448 11.6847C8.05718 12.6863 8.61039 13.5618 9.39175 14.1334C8.80623 14.1117 8.23359 13.9397 7.72 13.6313V13.6867C7.72101 14.6189 8.01622 15.5222 8.55573 16.2438C9.09525 16.9654 9.84597 17.4611 10.681 17.6471C10.364 17.7426 10.0366 17.7902 9.70788 17.7886C9.47611 17.7894 9.2448 17.7659 9.01712 17.7185C9.25313 18.521 9.71268 19.2226 10.3314 19.7251C10.9501 20.2276 11.697 20.5058 12.4675 20.5208C11.1586 21.6454 9.54183 22.2554 7.8775 22.2524C7.58424 22.2538 7.29118 22.2353 7 22.197C8.6892 23.3751 10.651 24.0007 12.6543 24Z" fill="white"/>
</svg>
