<svg width="139" height="151" viewBox="0 0 139 151" fill="none" xmlns="http://www.w3.org/2000/svg">
<g filter="url(#filter0_f_742_8049)">
<path d="M67.5 31.1547C68.7376 30.4402 70.2624 30.4402 71.5 31.1547L106.904 51.5953C108.142 52.3098 108.904 53.6303 108.904 55.0594V95.9406C108.904 97.3697 108.142 98.6902 106.904 99.4047L71.5 119.845C70.2624 120.56 68.7376 120.56 67.5 119.845L32.0958 99.4047C30.8582 98.6902 30.0958 97.3697 30.0958 95.9406V55.0594C30.0958 53.6303 30.8582 52.3098 32.0958 51.5953L67.5 31.1547Z" fill="url(#paint0_linear_742_8049)" fill-opacity="0.35"/>
</g>
<path d="M67.5 45.1547C68.7376 44.4402 70.2624 44.4402 71.5 45.1547L94.7798 58.5953C96.0174 59.3098 96.7798 60.6303 96.7798 62.0594V88.9406C96.7798 90.3697 96.0174 91.6902 94.7798 92.4047L71.5 105.845C70.2624 106.56 68.7376 106.56 67.5 105.845L44.2202 92.4047C42.9826 91.6902 42.2202 90.3697 42.2202 88.9406V62.0594C42.2202 60.6303 42.9826 59.3098 44.2202 58.5953L67.5 45.1547Z" fill="url(#paint1_linear_742_8049)"/>
<path d="M67.5 47.1547C68.7376 46.4402 70.2624 46.4402 71.5 47.1547L93.0477 59.5953C94.2854 60.3098 95.0477 61.6303 95.0477 63.0594V87.9406C95.0477 89.3697 94.2854 90.6902 93.0477 91.4047L71.5 103.845C70.2624 104.56 68.7376 104.56 67.5 103.845L45.9523 91.4047C44.7146 90.6902 43.9523 89.3697 43.9523 87.9406V63.0594C43.9523 61.6303 44.7146 60.3098 45.9523 59.5953L67.5 47.1547Z" fill="white"/>
<path d="M68 48.0207C68.9282 47.4848 70.0718 47.4848 71 48.0207L92.5477 60.4613C93.476 60.9972 94.0477 61.9876 94.0477 63.0594V87.9406C94.0477 89.0124 93.476 90.0028 92.5477 90.5387L71 102.979C70.0718 103.515 68.9282 103.515 68 102.979L46.4523 90.5387C45.524 90.0028 44.9523 89.0124 44.9523 87.9406V63.0594C44.9523 61.9876 45.524 60.9972 46.4523 60.4613L68 48.0207Z" stroke="#27222F" stroke-opacity="0.9" stroke-width="2"/>
<path fill-rule="evenodd" clip-rule="evenodd" d="M81.4528 63H66.1282C59.4579 63 54 68.6694 54 75.5984V76.4016C54 83.3305 59.4579 89 66.1282 89H81.4528C81.7543 89 82 88.7448 82 88.4316V78.5248C82 78.2115 81.7543 77.9564 81.4528 77.9564H74.7503C74.4537 77.9564 74.1991 78.1059 74.0466 78.37L68.4128 88.1205C68.3485 88.2315 68.2254 88.2826 68.105 88.2481C67.9849 88.2134 67.9047 88.1041 67.9047 87.9742V78.5248C67.9047 78.2115 67.6592 77.9564 67.3577 77.9564H63.0122C62.9104 77.9564 62.8228 77.9027 62.7729 77.81C62.7236 77.7169 62.7265 77.6116 62.7805 77.5215L71.0141 63.8401C71.0798 63.731 71.2022 63.6822 71.3217 63.7176C71.4405 63.7532 71.5195 63.8621 71.5195 63.9906V73.4751C71.5195 73.7883 71.7654 74.0435 72.0667 74.0435H81.4528C81.7543 74.0435 82 73.7883 82 73.4751V63.5682C82 63.255 81.7543 63 81.4528 63Z" fill="url(#paint2_linear_742_8049)"/>
<defs>
<filter id="filter0_f_742_8049" x="0.0957031" y="0.618652" width="138.809" height="149.763" filterUnits="userSpaceOnUse" color-interpolation-filters="sRGB">
<feFlood flood-opacity="0" result="BackgroundImageFix"/>
<feBlend mode="normal" in="SourceGraphic" in2="BackgroundImageFix" result="shape"/>
<feGaussianBlur stdDeviation="15" result="effect1_foregroundBlur_742_8049"/>
</filter>
<linearGradient id="paint0_linear_742_8049" x1="115" y1="30" x2="7.41354" y2="99.4372" gradientUnits="userSpaceOnUse">
<stop stop-color="#00C8A5"/>
<stop offset="0.505878" stop-color="#5983D3"/>
<stop offset="1" stop-color="#AC44FD"/>
</linearGradient>
<linearGradient id="paint1_linear_742_8049" x1="101" y1="44" x2="26.5171" y2="92.0719" gradientUnits="userSpaceOnUse">
<stop stop-color="#00C8A5"/>
<stop offset="0.505878" stop-color="#5983D3"/>
<stop offset="1" stop-color="#AC44FD"/>
</linearGradient>
<linearGradient id="paint2_linear_742_8049" x1="82" y1="63" x2="50.3819" y2="84.9763" gradientUnits="userSpaceOnUse">
<stop stop-color="#00C8A5"/>
<stop offset="0.505878" stop-color="#5983D3"/>
<stop offset="1" stop-color="#AC44FD"/>
</linearGradient>
</defs>
</svg>
